<svg xmlns="http://www.w3.org/2000/svg" xmlns:xlink="http://www.w3.org/1999/xlink" width="500" zoomAndPan="magnify" viewBox="0 0 375 374.999991" height="500" preserveAspectRatio="xMidYMid meet" version="1.0"><defs><clipPath id="1fd3692ce9"><path d="M 213 106 L 299.355469 106 L 299.355469 215 L 213 215 Z M 213 106 " clip-rule="nonzero"/></clipPath><clipPath id="5cd89c7d7c"><path d="M 75.855469 167 L 156 167 L 156 238 L 75.855469 238 Z M 75.855469 167 " clip-rule="nonzero"/></clipPath><clipPath id="6eaaa7208d"><path d="M 75.855469 207 L 93 207 L 93 223 L 75.855469 223 Z M 75.855469 207 " clip-rule="nonzero"/></clipPath><clipPath id="887c7d13a4"><path d="M 75.855469 213 L 87 213 L 87 223 L 75.855469 223 Z M 75.855469 213 " clip-rule="nonzero"/></clipPath></defs><rect x="-37.5" width="450" fill="#ffffff" y="-37.499999" height="449.999989" fill-opacity="1"/><rect x="-37.5" width="450" fill="#ffffff" y="-37.499999" height="449.999989" fill-opacity="1"/><path fill="#413757" d="M 175.640625 284.34375 C 175.640625 284.34375 186.910156 268.722656 158.15625 250.515625 C 158.15625 250.515625 145.039062 259.488281 142.890625 267.21875 C 141.03125 273.90625 149.796875 289.027344 158.957031 289.628906 C 168.117188 290.238281 175.640625 284.34375 175.640625 284.34375 Z M 175.640625 284.34375 " fill-opacity="1" fill-rule="nonzero"/><path fill="#ffffff" d="M 150.460938 285.199219 C 152.4375 286.640625 154.558594 287.582031 156.703125 287.714844 C 165.863281 288.316406 173.386719 282.421875 173.386719 282.421875 C 173.386719 282.421875 181.925781 270.582031 165.167969 255.507812 C 184.914062 271.484375 175.640625 284.34375 175.640625 284.34375 C 175.640625 284.34375 168.117188 290.238281 158.957031 289.636719 C 155.964844 289.441406 153.015625 287.691406 150.460938 285.199219 Z M 150.460938 285.199219 " fill-opacity="0.6" fill-rule="nonzero"/><path fill="#000000" d="M 160.292969 290.984375 C 159.828125 290.984375 159.351562 290.96875 158.871094 290.933594 C 154.574219 290.652344 149.976562 287.492188 146.265625 282.253906 C 142.4375 276.851562 140.570312 270.671875 141.632812 266.871094 C 143.886719 258.777344 156.867188 249.820312 157.421875 249.441406 L 158.125 248.957031 L 158.855469 249.414062 C 170.492188 256.78125 177.191406 264.664062 178.765625 272.839844 C 180.183594 280.164062 176.835938 284.90625 176.695312 285.105469 L 176.582031 285.253906 L 176.441406 285.363281 C 176.140625 285.609375 169.171875 290.984375 160.292969 290.984375 Z M 158.199219 252.089844 C 155.507812 254.042969 145.871094 261.378906 144.140625 267.578125 C 143.308594 270.558594 145.097656 276.105469 148.394531 280.75 C 151.597656 285.269531 155.578125 288.109375 159.042969 288.339844 C 166.875 288.855469 173.585938 284.242188 174.683594 283.433594 C 175.191406 282.632812 177.3125 278.867188 176.203125 273.257812 C 174.789062 266.113281 168.570312 258.808594 158.199219 252.089844 Z M 158.199219 252.089844 " fill-opacity="1" fill-rule="nonzero"/><path fill="#371a45" d="M 160.292969 290.984375 C 159.828125 290.984375 159.351562 290.96875 158.871094 290.933594 C 154.574219 290.652344 149.976562 287.492188 146.265625 282.253906 C 142.4375 276.851562 140.570312 270.671875 141.632812 266.871094 C 143.886719 258.777344 156.867188 249.820312 157.421875 249.441406 C 157.847656 249.148438 158.417969 249.140625 158.855469 249.414062 C 170.492188 256.78125 177.191406 264.664062 178.765625 272.839844 C 180.183594 280.164062 176.835938 284.90625 176.695312 285.105469 C 176.625 285.207031 176.535156 285.292969 176.441406 285.363281 C 176.140625 285.609375 169.171875 290.984375 160.292969 290.984375 Z M 158.199219 252.089844 C 155.507812 254.042969 145.871094 261.378906 144.140625 267.578125 C 143.308594 270.558594 145.097656 276.105469 148.394531 280.75 C 151.597656 285.269531 155.578125 288.109375 159.042969 288.339844 C 166.875 288.855469 173.585938 284.242188 174.683594 283.433594 C 175.191406 282.632812 177.3125 278.867188 176.203125 273.257812 C 174.789062 266.113281 168.570312 258.808594 158.199219 252.089844 Z M 175.640625 284.34375 Z M 175.640625 284.34375 Z M 175.640625 284.34375 " fill-opacity="1" fill-rule="nonzero"/><path fill="#371a45" d="M 149.265625 284.097656 C 144.628906 278.929688 141.640625 271.460938 142.800781 267.292969 C 144.960938 259.558594 158.070312 250.585938 158.070312 250.585938 C 161.007812 252.445312 163.515625 254.273438 165.667969 256.0625 C 165.460938 255.9375 165.253906 255.808594 165.042969 255.675781 C 165.042969 255.675781 150.683594 265.667969 147.945312 273.882812 C 147.066406 276.527344 147.667969 280.347656 149.265625 284.097656 Z M 149.265625 284.097656 " fill-opacity="0.4" fill-rule="nonzero"/><path fill="#ea7344" d="M 145.707031 207.367188 C 141.796875 207.035156 132.574219 203.679688 130.0625 208.578125 C 127.554688 213.476562 116.882812 253.046875 133.207031 261.167969 C 149.527344 269.285156 167.714844 256.148438 167.714844 256.148438 C 167.714844 256.148438 172.265625 209.636719 145.707031 207.367188 Z M 145.707031 207.367188 " fill-opacity="1" fill-rule="nonzero"/><path fill="#ffffff" d="M 157.9375 213.070312 C 155.300781 211.195312 152.128906 209.960938 148.324219 209.636719 C 144.414062 209.304688 135.191406 205.949219 132.683594 210.847656 C 130.40625 215.285156 121.433594 248.1875 131.90625 260.367188 C 117.160156 251.054688 127.414062 213.175781 129.859375 208.394531 C 132.367188 203.496094 141.589844 206.851562 145.5 207.191406 C 150.785156 207.636719 154.835938 209.835938 157.9375 213.070312 Z M 157.9375 213.070312 " fill-opacity="0.6" fill-rule="nonzero"/><path fill="#371a45" d="M 167.707031 256.15625 C 167.707031 256.15625 149.519531 269.300781 133.199219 261.183594 C 125.316406 257.265625 123.726562 246.011719 124.480469 234.878906 C 125.089844 242.570312 127.5 249.242188 133.199219 252.074219 C 149.519531 260.191406 167.707031 247.058594 167.707031 247.058594 C 167.707031 247.058594 167.816406 245.933594 167.90625 244.019531 C 168.214844 250.984375 167.707031 256.15625 167.707031 256.15625 Z M 167.707031 256.15625 " fill-opacity="0.4" fill-rule="nonzero"/><path fill="#371a45" d="M 144.867188 265.140625 C 140.878906 265.140625 136.703125 264.363281 132.613281 262.328125 C 128.964844 260.519531 126.3125 257.164062 124.738281 252.375 C 119.8125 237.378906 126.636719 212.390625 128.902344 207.976562 C 131.296875 203.289062 137.890625 204.589844 142.707031 205.539062 C 143.894531 205.773438 145.023438 205.996094 145.816406 206.058594 C 151.605469 206.550781 156.441406 209.082031 160.183594 213.585938 C 171.6875 227.410156 169.117188 255.089844 169.003906 256.269531 C 168.964844 256.640625 168.773438 256.980469 168.476562 257.195312 C 167.882812 257.621094 157.289062 265.140625 144.867188 265.140625 Z M 135.761719 207.238281 C 133.710938 207.238281 131.972656 207.707031 131.21875 209.171875 C 129.128906 213.246094 122.597656 237.523438 127.214844 251.558594 C 128.570312 255.660156 130.777344 258.5 133.773438 259.996094 C 147.753906 266.949219 163.515625 257.351562 166.457031 255.414062 C 166.765625 251.300781 168.09375 227.164062 158.175781 215.253906 C 154.898438 211.3125 150.664062 209.097656 145.585938 208.664062 C 144.644531 208.585938 143.515625 208.363281 142.191406 208.101562 C 140.199219 207.707031 137.824219 207.238281 135.761719 207.238281 Z M 167.707031 256.140625 Z M 167.707031 256.140625 " fill-opacity="1" fill-rule="nonzero"/><path fill="#1297e0" d="M 122.011719 243.519531 C 122.011719 243.519531 128.804688 240.246094 135.292969 241.707031 C 135.292969 241.707031 136.417969 252.792969 138.101562 257.082031 C 138.101562 257.082031 130.800781 259.59375 127.554688 259.695312 C 124.3125 259.796875 121.488281 247.738281 122.011719 243.519531 Z M 122.011719 243.519531 " fill-opacity="1" fill-rule="nonzero"/><path fill="#ffffff" d="M 124.375 245.46875 C 123.988281 248.632812 125.476562 256.222656 127.621094 259.765625 C 127.597656 259.765625 127.570312 259.765625 127.546875 259.765625 C 124.304688 259.867188 121.488281 247.800781 122.011719 243.582031 C 122.011719 243.582031 128.804688 240.308594 135.285156 241.773438 C 135.285156 241.773438 135.339844 242.363281 135.460938 243.332031 C 129.722656 242.894531 124.375 245.46875 124.375 245.46875 Z M 124.375 245.46875 " fill-opacity="0.6" fill-rule="nonzero"/><path fill="#371a45" d="M 138.15625 257.082031 C 138.15625 257.082031 130.855469 259.59375 127.613281 259.703125 C 126.773438 259.726562 125.964844 258.941406 125.238281 257.691406 C 128.796875 257.164062 134.488281 255.207031 134.488281 255.207031 C 133.179688 251.890625 132.214844 244.515625 131.851562 241.335938 C 133 241.335938 134.1875 241.449219 135.355469 241.707031 C 135.347656 241.707031 136.472656 252.792969 138.15625 257.082031 Z M 138.15625 257.082031 " fill-opacity="0.4" fill-rule="nonzero"/><path fill="#371a45" d="M 127.507812 261 C 126.636719 261 125.816406 260.582031 125.054688 259.75 C 122.214844 256.640625 120.246094 247.121094 120.714844 243.355469 C 120.769531 242.910156 121.046875 242.53125 121.441406 242.339844 C 121.734375 242.199219 128.726562 238.890625 135.570312 240.433594 C 136.117188 240.5625 136.519531 241.019531 136.582031 241.574219 C 136.589844 241.683594 137.707031 252.535156 139.3125 256.601562 C 139.441406 256.933594 139.429688 257.304688 139.28125 257.621094 C 139.132812 257.945312 138.855469 258.191406 138.523438 258.308594 C 138.214844 258.414062 130.988281 260.882812 127.597656 260.992188 C 127.5625 261 127.53125 261 127.507812 261 Z M 123.246094 244.40625 C 123.125 248.164062 124.921875 255.652344 126.929688 257.945312 C 127.261719 258.316406 127.46875 258.398438 127.507812 258.398438 C 129.597656 258.324219 133.925781 257.066406 136.441406 256.261719 C 135.222656 252.199219 134.382812 245.347656 134.089844 242.808594 C 129.558594 242.113281 124.9375 243.71875 123.246094 244.40625 Z M 123.246094 244.40625 " fill-opacity="1" fill-rule="nonzero"/><path fill="#413757" d="M 297.992188 154.492188 C 297.992188 154.492188 292.140625 167.460938 284.1875 178.183594 C 276.246094 188.90625 267.667969 182.035156 267.667969 182.035156 C 245.082031 221.507812 221.871094 215.144531 217.4375 208.324219 C 215.730469 205.703125 214.695312 201.613281 214.589844 197.457031 C 214.550781 195.898438 214.644531 194.324219 214.882812 192.820312 C 215.652344 187.921875 217.960938 183.707031 222.289062 182.722656 C 231.488281 180.628906 240.691406 173.308594 242.574219 167.316406 C 244.457031 161.328125 249.472656 155.742188 249.472656 155.742188 L 243.617188 145.699219 C 243.632812 145.152344 243.671875 144.589844 243.746094 144.03125 C 244.371094 138.855469 247.128906 132.910156 250.398438 127.429688 C 256.222656 117.648438 263.691406 109.308594 263.691406 109.308594 L 268.714844 115.667969 C 270.382812 113.042969 274.148438 117.039062 274.148438 117.039062 L 276.65625 113.476562 Z M 297.992188 154.492188 " fill-opacity="1" fill-rule="nonzero"/><path fill="#ffffff" d="M 257.628906 150.179688 C 257.628906 150.179688 253.679688 152.371094 252.21875 157.585938 C 251.15625 161.367188 249.132812 161.777344 247.414062 165.078125 C 245.058594 169.613281 244.890625 174.527344 240.492188 177.644531 C 237.746094 179.597656 227.042969 186.515625 214.875 192.828125 C 215.644531 187.929688 217.953125 183.714844 222.28125 182.734375 C 231.480469 180.636719 240.683594 173.316406 242.566406 167.324219 C 244.449219 161.335938 248.339844 158.921875 249.464844 155.75 C 252.140625 148.238281 257.628906 150.179688 257.628906 150.179688 Z M 257.628906 150.179688 " fill-opacity="0.6" fill-rule="nonzero"/><path fill="#371a45" d="M 297.992188 154.492188 C 297.992188 154.492188 292.140625 167.460938 284.1875 178.183594 C 276.246094 188.90625 267.667969 182.035156 267.667969 182.035156 C 245.082031 221.507812 221.871094 215.144531 217.4375 208.324219 C 215.730469 205.703125 214.695312 201.613281 214.589844 197.457031 C 234.621094 210.316406 262.914062 182.027344 262.914062 182.027344 L 259.875 177.636719 L 256.292969 177.636719 C 260.921875 165.378906 254.394531 140.375 250.40625 127.421875 C 256.230469 117.640625 263.699219 109.300781 263.699219 109.300781 L 268.722656 115.660156 C 270.390625 113.035156 274.15625 117.03125 274.15625 117.03125 L 276.664062 113.46875 Z M 297.992188 154.492188 " fill-opacity="0.4" fill-rule="nonzero"/><path fill="#5f77e6" d="M 273.847656 183.585938 C 270.234375 183.476562 267.667969 181.425781 267.667969 181.425781 C 261.65625 175.453125 261.132812 167.476562 261.132812 167.476562 C 263.175781 159.445312 259.875 150.691406 256.285156 149.308594 C 252.691406 147.921875 249.472656 155.132812 249.472656 155.132812 L 243.617188 145.089844 C 244.039062 130.65625 265.128906 108.066406 265.128906 108.066406 L 268.714844 115.066406 C 268.714844 115.066406 283.59375 145.382812 286.632812 154.238281 C 286.632812 154.238281 266.808594 179.773438 273.847656 183.585938 Z M 273.847656 183.585938 " fill-opacity="1" fill-rule="nonzero"/><path fill="#371a45" d="M 273.847656 183.59375 C 271.378906 183.523438 269.402344 182.542969 268.398438 181.925781 C 266.957031 177.191406 274.265625 165.757812 278.902344 159.160156 C 281.183594 155.921875 281.617188 151.738281 280.050781 148.105469 C 274.820312 135.941406 264.582031 115.074219 264.582031 115.074219 L 262.511719 111.023438 C 264.101562 109.164062 265.121094 108.074219 265.121094 108.074219 L 268.714844 115.074219 C 268.714844 115.074219 283.585938 145.390625 286.632812 154.246094 C 286.632812 154.238281 266.808594 179.773438 273.847656 183.59375 Z M 273.847656 183.59375 " fill-opacity="0.3" fill-rule="nonzero"/><path fill="#ffffff" d="M 254.296875 126.226562 C 254.980469 126.820312 254.695312 128.441406 253.625 129.90625 C 252.820312 131.011719 251.789062 131.726562 251 131.804688 C 248.714844 135.988281 246.902344 140.175781 246.109375 143.878906 L 251.292969 151.824219 C 250.089844 153.421875 249.324219 155.140625 249.324219 155.140625 L 243.46875 145.097656 C 243.886719 130.664062 264.980469 108.074219 264.980469 108.074219 L 265.890625 110.550781 C 262.953125 113.945312 258.363281 119.808594 254.296875 126.226562 Z M 254.296875 126.226562 " fill-opacity="0.6" fill-rule="nonzero"/><path fill="#371a45" d="M 273.683594 183.585938 C 270.066406 183.476562 267.511719 181.425781 267.511719 181.425781 C 261.5 175.453125 260.976562 167.476562 260.976562 167.476562 C 262.636719 160.933594 260.753906 153.90625 258.066406 150.78125 C 258.878906 150.28125 259.773438 150.074219 260.691406 150.421875 C 264.28125 151.808594 267.574219 160.566406 265.539062 168.59375 C 265.539062 168.59375 266.0625 176.574219 272.074219 182.542969 C 272.074219 182.542969 272.519531 182.890625 273.285156 183.308594 C 273.40625 183.421875 273.539062 183.507812 273.683594 183.585938 Z M 273.683594 183.585938 " fill-opacity="0.2" fill-rule="nonzero"/><path fill="#ffffff" d="M 293.601562 153.992188 L 273.855469 183.59375 L 273.847656 183.59375 C 266.808594 179.773438 286.640625 154.246094 286.640625 154.246094 C 283.59375 145.398438 268.722656 115.074219 268.722656 115.074219 C 270.398438 112.449219 274.164062 116.445312 274.164062 116.445312 Z M 293.601562 153.992188 " fill-opacity="1" fill-rule="nonzero"/><path fill="#5f77e6" d="M 297.992188 153.882812 C 297.992188 153.882812 292.140625 166.851562 284.1875 177.574219 C 280.582031 182.433594 276.855469 183.683594 273.847656 183.585938 L 293.59375 153.984375 L 274.148438 116.445312 L 276.65625 112.890625 Z M 297.992188 153.882812 " fill-opacity="1" fill-rule="nonzero"/><g clip-path="url(#1fd3692ce9)"><path fill="#371a45" d="M 229.457031 214.71875 C 222.953125 214.71875 218.207031 211.90625 216.347656 209.035156 C 213.007812 203.890625 212.289062 194.347656 214.78125 188.199219 C 216.277344 184.519531 218.769531 182.1875 221.996094 181.449219 C 231.371094 179.320312 239.710938 172.089844 241.332031 166.929688 C 242.898438 161.960938 246.441406 157.339844 247.882812 155.597656 L 242.496094 146.355469 C 242.367188 146.140625 242.3125 145.90625 242.320312 145.660156 C 242.746094 130.917969 263.292969 108.152344 264.164062 107.1875 C 264.457031 106.863281 264.890625 106.710938 265.320312 106.773438 C 265.746094 106.839844 266.117188 107.117188 266.308594 107.511719 L 269.203125 113.652344 C 269.464844 113.554688 269.726562 113.507812 269.949219 113.484375 C 271.417969 113.351562 272.929688 114.269531 273.941406 115.082031 L 275.605469 112.734375 C 275.867188 112.363281 276.300781 112.15625 276.757812 112.1875 C 277.210938 112.21875 277.613281 112.480469 277.828125 112.882812 L 299.15625 153.882812 C 299.339844 154.238281 299.355469 154.65625 299.1875 155.019531 C 299.132812 155.15625 293.183594 168.242188 285.25 178.949219 C 282.417969 182.773438 279.164062 184.941406 275.589844 185.40625 C 272.328125 185.828125 269.625 184.703125 268.121094 183.863281 C 252.707031 210.160156 237.730469 214.488281 230.105469 214.699219 C 229.882812 214.710938 229.671875 214.71875 229.457031 214.71875 Z M 244.9375 145.375 L 250.605469 155.085938 C 250.890625 155.574219 250.824219 156.191406 250.445312 156.613281 C 250.398438 156.667969 245.589844 162.070312 243.816406 167.714844 C 241.710938 174.398438 231.988281 181.855469 222.574219 184 C 220.175781 184.542969 218.371094 186.285156 217.195312 189.191406 C 214.78125 195.132812 215.960938 203.671875 218.53125 207.617188 C 220.011719 209.890625 224.226562 212.265625 230.027344 212.105469 C 237.21875 211.898438 251.523438 207.644531 266.539062 181.394531 C 266.726562 181.0625 267.050781 180.832031 267.425781 180.761719 C 267.796875 180.691406 268.183594 180.785156 268.484375 181.023438 C 268.507812 181.046875 271.472656 183.332031 275.273438 182.828125 C 278.113281 182.449219 280.753906 180.628906 283.144531 177.40625 C 289.988281 168.179688 295.320312 157.132812 296.539062 154.523438 L 276.492188 115.984375 L 275.214844 117.796875 C 274.996094 118.113281 274.632812 118.320312 274.242188 118.34375 C 273.855469 118.375 273.46875 118.226562 273.207031 117.941406 C 272.433594 117.117188 270.945312 116.015625 270.191406 116.089844 C 270.113281 116.097656 269.988281 116.105469 269.820312 116.375 C 269.566406 116.777344 269.117188 117.007812 268.640625 116.976562 C 268.167969 116.941406 267.75 116.660156 267.542969 116.230469 L 264.804688 110.421875 C 260.296875 115.652344 245.574219 133.617188 244.9375 145.375 Z M 244.9375 145.375 " fill-opacity="1" fill-rule="nonzero"/></g><path fill="#371a45" d="M 267.667969 183.332031 C 267.335938 183.332031 267.003906 183.207031 266.75 182.953125 C 260.460938 176.703125 259.859375 168.511719 259.835938 168.164062 C 259.828125 168.03125 259.835938 167.886719 259.875 167.761719 C 261.765625 160.316406 258.730469 152.25 255.824219 151.128906 C 254.007812 150.421875 251.523438 154.363281 250.667969 156.269531 C 250.375 156.929688 249.597656 157.222656 248.941406 156.929688 C 248.285156 156.636719 247.992188 155.867188 248.285156 155.210938 C 248.664062 154.355469 252.140625 146.925781 256.75 148.699219 C 261.078125 150.367188 264.519531 159.640625 262.449219 168.179688 C 262.574219 169.375 263.5 176.0625 268.585938 181.109375 C 269.101562 181.617188 269.101562 182.441406 268.59375 182.953125 C 268.339844 183.207031 268 183.332031 267.667969 183.332031 Z M 267.667969 183.332031 " fill-opacity="1" fill-rule="nonzero"/><path fill="#371a45" d="M 273.847656 185.503906 C 273.640625 185.503906 273.429688 185.453125 273.230469 185.34375 C 272.148438 184.757812 271.433594 183.769531 271.15625 182.480469 C 269.671875 175.421875 282.265625 158.414062 285.167969 154.609375 C 281.726562 145.175781 267.691406 116.546875 267.542969 116.246094 C 267.226562 115.597656 267.496094 114.824219 268.136719 114.507812 C 268.785156 114.191406 269.558594 114.457031 269.875 115.097656 C 270.484375 116.34375 284.820312 145.589844 287.859375 154.410156 C 288 154.832031 287.921875 155.289062 287.652344 155.636719 C 283.390625 161.128906 272.566406 176.566406 273.699219 181.933594 C 273.847656 182.636719 274.179688 182.898438 274.457031 183.042969 C 275.089844 183.382812 275.328125 184.171875 274.988281 184.804688 C 274.757812 185.25 274.308594 185.503906 273.847656 185.503906 Z M 273.847656 185.503906 " fill-opacity="1" fill-rule="nonzero"/><path fill="#371a45" d="M 273.847656 185.503906 C 273.601562 185.503906 273.347656 185.429688 273.128906 185.28125 C 272.527344 184.886719 272.367188 184.070312 272.765625 183.476562 L 292.09375 154.515625 L 272.992188 117.648438 C 272.660156 117.007812 272.914062 116.222656 273.546875 115.890625 C 274.1875 115.558594 274.972656 115.8125 275.304688 116.445312 L 294.75 153.992188 C 294.972656 154.410156 294.941406 154.917969 294.679688 155.3125 L 274.933594 184.917969 C 274.679688 185.296875 274.265625 185.503906 273.847656 185.503906 Z M 273.847656 185.503906 " fill-opacity="1" fill-rule="nonzero"/><path fill="#413757" d="M 153.378906 224.054688 C 139.265625 256.804688 92.207031 213.988281 92.207031 213.988281 L 90.753906 216.441406 L 90.324219 217.152344 C 90.324219 217.152344 87.960938 218.609375 85.308594 219.695312 C 82.953125 220.660156 80.363281 221.332031 79.035156 220.414062 C 77.636719 219.449219 77.230469 216.933594 77.191406 214.644531 C 77.152344 212.328125 77.46875 210.246094 77.46875 210.246094 L 78.371094 208.578125 L 82.699219 200.609375 C 81.511719 193.992188 83.226562 189.933594 85.617188 187.449219 C 88.910156 184.03125 93.464844 183.59375 93.464844 183.59375 L 94.558594 181.710938 L 100.996094 170.625 C 100.996094 170.625 103.503906 166.511719 109.46875 169.296875 C 115.429688 172.082031 113.433594 178.183594 113.433594 178.183594 L 108.210938 188.222656 C 113.148438 190.835938 114.488281 198.519531 126.203125 200.0625 C 127.34375 200.210938 128.570312 200.457031 129.851562 200.78125 C 135.007812 202.09375 140.988281 204.769531 145.722656 208.210938 C 151.804688 212.644531 155.839844 218.339844 153.378906 224.054688 Z M 153.378906 224.054688 " fill-opacity="1" fill-rule="nonzero"/><path fill="#ffffff" d="M 129.84375 200.78125 C 135 202.09375 140.980469 204.769531 145.714844 208.210938 C 135.738281 208.902344 121.929688 206.304688 112.019531 196.121094 C 102.730469 186.578125 92.128906 186.347656 85.617188 187.457031 C 88.910156 184.039062 93.464844 183.601562 93.464844 183.601562 L 94.558594 181.71875 L 100.996094 170.632812 C 100.996094 170.632812 103.503906 166.519531 109.46875 169.304688 C 115.429688 172.089844 113.433594 178.191406 113.433594 178.191406 L 108.210938 188.230469 C 113.148438 190.84375 114.488281 198.527344 126.203125 200.070312 C 127.34375 200.210938 128.570312 200.457031 129.84375 200.78125 Z M 129.84375 200.78125 " fill-opacity="0.6" fill-rule="nonzero"/><path fill="#371a45" d="M 153.378906 224.054688 C 139.265625 256.804688 92.207031 213.988281 92.207031 213.988281 L 90.753906 216.441406 L 90.324219 217.152344 C 90.324219 217.152344 87.960938 218.609375 85.308594 219.695312 C 82.953125 220.660156 80.363281 221.332031 79.035156 220.414062 C 77.636719 219.449219 77.230469 216.933594 77.191406 214.644531 C 77.152344 212.328125 77.46875 210.246094 77.46875 210.246094 L 78.371094 208.578125 L 82.699219 200.609375 C 79.875 184.894531 93.464844 183.59375 93.464844 183.59375 L 94.558594 181.710938 C 96.789062 182.804688 98.339844 183.59375 98.339844 183.59375 C 98.339844 183.59375 95.078125 194.261719 109.195312 202.363281 L 103.609375 202.363281 C 103.609375 202.363281 113.949219 232.726562 130.910156 224.09375 C 140.878906 219.023438 135.761719 208.550781 129.851562 200.78125 C 141.632812 203.789062 157.753906 213.902344 153.378906 224.054688 Z M 153.378906 224.054688 " fill-opacity="0.4" fill-rule="nonzero"/><path fill="#5eb545" d="M 113.425781 177.652344 L 108.203125 187.695312 C 108.203125 187.695312 105.839844 186.601562 103.15625 186.285156 C 100.832031 186.007812 98.261719 186.332031 96.804688 188.46875 C 95.0625 191.023438 95.933594 194.128906 97.050781 196.375 C 97.945312 198.179688 99.003906 199.445312 99.003906 199.445312 L 92.199219 213.449219 L 90.746094 215.894531 C 89.761719 214.195312 88.664062 212.847656 87.515625 211.789062 C 85.753906 210.167969 83.878906 209.210938 82.113281 208.671875 C 80.75 208.253906 79.460938 208.078125 78.363281 208.039062 L 82.691406 200.070312 L 93.457031 183.058594 L 100.988281 170.085938 C 100.988281 170.085938 103.496094 165.980469 109.460938 168.757812 C 109.738281 168.882812 109.992188 169.019531 110.230469 169.160156 C 110.332031 169.21875 110.4375 169.28125 110.53125 169.34375 C 115.167969 172.328125 113.425781 177.652344 113.425781 177.652344 Z M 113.425781 177.652344 " fill-opacity="1" fill-rule="nonzero"/><path fill="#f9e7ce" d="M 90.746094 215.910156 L 90.316406 216.625 C 90.316406 216.625 87.953125 218.078125 85.300781 219.164062 C 84.730469 217.445312 83.878906 216.269531 82.902344 215.492188 C 81.898438 214.683594 80.761719 214.289062 79.660156 214.132812 C 78.78125 214.003906 77.925781 214.027344 77.175781 214.117188 C 77.136719 211.804688 77.453125 209.714844 77.453125 209.714844 L 78.355469 208.046875 C 79.460938 208.09375 80.75 208.261719 82.105469 208.679688 C 83.859375 209.21875 85.742188 210.175781 87.507812 211.796875 C 88.671875 212.867188 89.769531 214.210938 90.746094 215.910156 Z M 90.746094 215.910156 " fill-opacity="1" fill-rule="nonzero"/><path fill="#5eb545" d="M 85.308594 219.164062 C 83.203125 220.027344 80.910156 220.660156 79.5 220.121094 C 79.335938 220.058594 79.175781 219.980469 79.035156 219.882812 C 78.242188 219.339844 77.777344 218.308594 77.507812 217.097656 C 77.292969 216.15625 77.207031 215.113281 77.191406 214.117188 C 77.933594 214.019531 78.796875 213.996094 79.675781 214.132812 C 80.777344 214.28125 81.90625 214.683594 82.917969 215.492188 C 83.886719 216.269531 84.738281 217.445312 85.308594 219.164062 Z M 85.308594 219.164062 " fill-opacity="1" fill-rule="nonzero"/><path fill="#ffffff" d="M 110.230469 169.175781 C 108.457031 169.144531 105.808594 169.550781 104.304688 171.921875 C 102.832031 174.265625 94.128906 188.714844 87.683594 199.445312 C 88.488281 200 88.371094 201.691406 87.421875 203.289062 C 86.464844 204.90625 85 205.808594 84.136719 205.339844 C 83.363281 206.628906 82.683594 207.769531 82.128906 208.695312 C 81.132812 210.355469 80.539062 211.339844 80.539062 211.339844 C 80.539062 211.339844 80.046875 212.476562 79.675781 214.140625 C 79.296875 215.816406 79.027344 218.03125 79.511719 220.128906 C 79.34375 220.066406 79.183594 219.988281 79.042969 219.890625 C 78.25 219.347656 77.785156 218.316406 77.515625 217.105469 C 77.300781 216.164062 77.214844 215.121094 77.199219 214.125 C 77.160156 211.8125 77.476562 209.722656 77.476562 209.722656 L 78.378906 208.054688 L 82.707031 200.085938 L 93.472656 183.074219 L 101.003906 170.101562 C 101.003906 170.101562 103.511719 165.996094 109.480469 168.773438 C 109.738281 168.902344 109.992188 169.035156 110.230469 169.175781 Z M 110.230469 169.175781 " fill-opacity="0.6" fill-rule="nonzero"/><path fill="#371a45" d="M 82.691406 201.914062 C 82.453125 201.914062 82.207031 201.851562 81.992188 201.707031 C 81.386719 201.320312 81.203125 200.519531 81.589844 199.910156 L 92.359375 182.898438 C 92.746094 182.289062 93.542969 182.105469 94.152344 182.496094 C 94.761719 182.882812 94.945312 183.683594 94.558594 184.292969 L 83.789062 201.304688 C 83.542969 201.699219 83.125 201.914062 82.691406 201.914062 Z M 82.691406 201.914062 " fill-opacity="1" fill-rule="nonzero"/><path fill="#371a45" d="M 97.058594 196.382812 C 97.953125 198.1875 99.011719 199.453125 99.011719 199.453125 L 92.207031 213.457031 L 90.753906 215.902344 L 90.324219 216.617188 C 90.324219 216.617188 87.960938 218.070312 85.308594 219.15625 C 82.953125 220.128906 80.363281 220.792969 79.035156 219.875 C 78.242188 219.332031 78.339844 219.921875 78.070312 218.714844 C 80.207031 218.476562 82.175781 217.542969 83.503906 216.542969 C 85.617188 214.953125 86.621094 212.875 87.523438 211.796875 C 88.234375 210.949219 88.570312 210.339844 88.570312 210.339844 C 88.570312 210.339844 92.554688 203.804688 97.058594 196.382812 Z M 97.058594 196.382812 " fill-opacity="0.3" fill-rule="nonzero"/><path fill="#371a45" d="M 113.425781 177.652344 L 108.203125 187.695312 C 108.203125 187.695312 105.839844 186.601562 103.15625 186.285156 C 105.957031 181.625 108.308594 177.707031 109.1875 176.148438 C 110.570312 173.703125 110.730469 171.242188 110.53125 169.359375 C 115.167969 172.328125 113.425781 177.652344 113.425781 177.652344 Z M 113.425781 177.652344 " fill-opacity="0.3" fill-rule="nonzero"/><g clip-path="url(#5cd89c7d7c)"><path fill="#371a45" d="M 135.785156 237.695312 C 118.710938 237.695312 97.761719 220.539062 92.523438 216.007812 L 91.449219 217.820312 C 91.335938 218 91.1875 218.152344 91.011719 218.261719 C 90.910156 218.324219 88.527344 219.789062 85.808594 220.898438 C 82.277344 222.34375 79.820312 222.542969 78.300781 221.484375 C 76.773438 220.421875 75.957031 218.128906 75.894531 214.667969 C 75.855469 212.273438 76.171875 210.136719 76.1875 210.046875 C 76.210938 209.898438 76.257812 209.753906 76.328125 209.621094 L 81.34375 200.386719 C 80.492188 195.164062 81.296875 190.882812 83.734375 187.664062 C 86.636719 183.832031 90.980469 182.699219 92.660156 182.398438 L 99.875 169.976562 C 100.964844 168.1875 104.46875 165.53125 110.023438 168.117188 C 115.5625 170.703125 115.492188 176.09375 114.675781 178.585938 C 114.652344 178.65625 114.628906 178.71875 114.597656 178.785156 L 109.929688 187.757812 C 111.273438 188.722656 112.367188 189.988281 113.511719 191.316406 C 116.140625 194.363281 119.105469 197.816406 126.378906 198.773438 C 135.738281 200.007812 149.289062 206.882812 153.765625 214.78125 C 155.664062 218.128906 155.941406 221.425781 154.582031 224.578125 C 151.550781 231.601562 146.8125 235.851562 140.492188 237.222656 C 138.964844 237.546875 137.390625 237.695312 135.785156 237.695312 Z M 92.207031 212.683594 C 92.53125 212.683594 92.839844 212.800781 93.085938 213.023438 C 93.371094 213.277344 121.527344 238.644531 139.9375 234.664062 C 145.390625 233.488281 149.503906 229.742188 152.183594 223.539062 C 153.207031 221.175781 152.96875 218.664062 151.496094 216.0625 C 147.390625 208.828125 134.78125 202.507812 126.03125 201.351562 C 117.777344 200.269531 114.3125 196.246094 111.527344 193.019531 C 110.199219 191.476562 109.050781 190.140625 107.605469 189.378906 C 106.96875 189.046875 106.726562 188.261719 107.058594 187.621094 L 112.222656 177.683594 C 112.460938 176.867188 113.441406 172.589844 108.917969 170.476562 C 104.28125 168.316406 102.351562 170.933594 102.113281 171.304688 L 94.597656 184.25 C 94.382812 184.617188 94.011719 184.851562 93.59375 184.894531 C 93.542969 184.902344 88.671875 185.429688 85.792969 189.253906 C 83.75 191.960938 83.140625 195.703125 83.980469 200.378906 C 84.035156 200.671875 83.988281 200.972656 83.84375 201.234375 L 78.726562 210.65625 C 78.65625 211.234375 78.464844 212.867188 78.496094 214.621094 C 78.542969 217.050781 79.027344 218.816406 79.777344 219.339844 C 80.308594 219.710938 81.914062 219.679688 84.820312 218.484375 C 86.835938 217.660156 88.703125 216.601562 89.375 216.195312 L 91.09375 213.316406 C 91.289062 212.984375 91.628906 212.753906 92.019531 212.691406 C 92.082031 212.691406 92.144531 212.683594 92.207031 212.683594 Z M 153.378906 224.054688 Z M 153.378906 224.054688 " fill-opacity="1" fill-rule="nonzero"/></g><g clip-path="url(#6eaaa7208d)"><path fill="#371a45" d="M 80.734375 222.15625 C 79.746094 222.15625 78.941406 221.933594 78.300781 221.492188 C 76.773438 220.429688 75.957031 218.136719 75.894531 214.675781 C 75.855469 212.28125 76.171875 210.144531 76.1875 210.054688 C 76.210938 209.90625 76.257812 209.761719 76.328125 209.628906 L 77.238281 207.960938 C 77.476562 207.523438 77.941406 207.261719 78.433594 207.277344 C 81.703125 207.40625 87.792969 208.6875 91.890625 215.785156 C 92.128906 216.195312 92.121094 216.695312 91.882812 217.097656 L 91.457031 217.8125 C 91.34375 217.992188 91.195312 218.144531 91.019531 218.253906 C 90.917969 218.316406 88.535156 219.78125 85.816406 220.890625 C 83.765625 221.734375 82.082031 222.15625 80.734375 222.15625 Z M 78.71875 210.65625 C 78.648438 211.234375 78.457031 212.867188 78.488281 214.621094 C 78.535156 217.050781 79.019531 218.816406 79.769531 219.339844 C 80.300781 219.703125 81.90625 219.679688 84.808594 218.484375 C 86.636719 217.730469 88.347656 216.789062 89.152344 216.324219 C 86.15625 211.65625 82.199219 210.230469 79.113281 209.929688 Z M 78.71875 210.65625 " fill-opacity="1" fill-rule="nonzero"/></g><g clip-path="url(#887c7d13a4)"><path fill="#371a45" d="M 80.726562 222.15625 C 79.738281 222.15625 78.933594 221.933594 78.292969 221.492188 C 76.765625 220.429688 75.949219 218.136719 75.886719 214.675781 C 75.871094 214.011719 76.367188 213.441406 77.035156 213.355469 C 81.628906 212.792969 85.101562 214.953125 86.550781 219.28125 C 86.765625 219.933594 86.449219 220.644531 85.808594 220.898438 C 83.765625 221.734375 82.082031 222.15625 80.726562 222.15625 Z M 78.558594 215.863281 C 78.726562 217.644531 79.152344 218.910156 79.777344 219.339844 C 80.230469 219.65625 81.457031 219.679688 83.601562 218.941406 C 82.570312 216.925781 80.878906 215.894531 78.558594 215.863281 Z M 78.558594 215.863281 " fill-opacity="1" fill-rule="nonzero"/></g><path fill="#371a45" d="M 92.207031 215.292969 C 92.019531 215.292969 91.820312 215.253906 91.636719 215.160156 C 90.988281 214.84375 90.71875 214.066406 91.035156 213.417969 L 97.484375 200.132812 C 96.101562 198.21875 92.707031 192.710938 95.734375 188.261719 C 99.453125 182.8125 108.378906 186.863281 108.757812 187.039062 C 109.414062 187.335938 109.691406 188.113281 109.390625 188.769531 C 109.089844 189.417969 108.316406 189.703125 107.667969 189.402344 C 107.585938 189.371094 100.324219 186.160156 97.886719 189.734375 C 95.347656 193.460938 99.960938 199.089844 100.007812 199.152344 C 100.332031 199.546875 100.402344 200.09375 100.183594 200.550781 L 93.386719 214.558594 C 93.15625 215.027344 92.691406 215.292969 92.207031 215.292969 Z M 92.207031 215.292969 " fill-opacity="1" fill-rule="nonzero"/><path fill="#fffdff" d="M 245.605469 228.097656 C 245.605469 229.769531 245.523438 231.421875 245.375 233.058594 C 245.191406 235.007812 244.90625 236.929688 244.527344 238.820312 C 239.542969 263.445312 217.859375 283.132812 191.851562 284.796875 C 174.84375 285.886719 159.667969 279.035156 149.820312 267.441406 C 149.296875 266.824219 148.789062 266.199219 148.292969 265.558594 C 146.671875 263.445312 145.214844 261.191406 143.949219 258.808594 C 143.78125 258.492188 143.617188 258.183594 143.457031 257.867188 C 143.132812 257.234375 142.832031 256.59375 142.539062 255.9375 C 141.820312 254.351562 141.1875 252.722656 140.632812 251.054688 C 140.332031 250.144531 140.066406 249.226562 139.8125 248.292969 C 138.6875 244.082031 138.09375 239.628906 138.09375 235 C 138.09375 234.128906 138.117188 233.265625 138.15625 232.402344 C 138.410156 227.234375 139.390625 222.210938 141.023438 217.4375 C 142.546875 212.945312 144.644531 208.679688 147.214844 204.722656 C 147.769531 203.875 148.339844 203.046875 148.933594 202.230469 C 149.636719 201.273438 150.355469 200.332031 151.117188 199.414062 C 152.265625 198.027344 153.472656 196.683594 154.742188 195.410156 C 155.074219 195.078125 155.40625 194.746094 155.738281 194.421875 C 156.28125 193.898438 156.828125 193.382812 157.398438 192.886719 C 166.726562 184.558594 178.742188 179.140625 191.84375 178.300781 C 200.175781 177.761719 208.054688 179.132812 215.089844 182.035156 C 216.261719 182.519531 217.40625 183.042969 218.523438 183.601562 C 223.183594 185.945312 227.398438 188.984375 231.039062 192.601562 C 231.648438 193.203125 232.242188 193.820312 232.8125 194.460938 C 234.921875 196.785156 236.8125 199.308594 238.453125 202.023438 C 241.472656 207.027344 243.632812 212.644531 244.742188 218.6875 C 245.066406 220.460938 245.304688 222.265625 245.4375 224.101562 C 245.554688 225.40625 245.605469 226.746094 245.605469 228.097656 Z M 245.605469 228.097656 " fill-opacity="1" fill-rule="nonzero"/><path fill="#371a45" d="M 245.605469 228.097656 C 245.605469 229.769531 245.523438 231.421875 245.375 233.058594 C 242.851562 260.3125 219.851562 283.007812 191.851562 284.804688 C 170.957031 286.148438 152.839844 275.496094 143.949219 258.816406 C 142.636719 256.355469 141.527344 253.769531 140.632812 251.0625 C 140.332031 250.152344 140.066406 249.234375 139.8125 248.300781 C 151.8125 261.261719 173.269531 275.109375 200.375 268.660156 C 227.574219 262.1875 240.328125 237.75 245.445312 224.101562 C 245.554688 225.40625 245.605469 226.746094 245.605469 228.097656 Z M 245.605469 228.097656 " fill-opacity="0.3" fill-rule="nonzero"/><path fill="#413757" d="M 238.46875 202.015625 C 216.355469 248.109375 153.292969 236.050781 138.164062 232.402344 C 138.648438 222.367188 141.921875 212.882812 147.230469 204.722656 C 149.667969 200.980469 152.53125 197.515625 155.761719 194.410156 C 165.300781 185.226562 177.96875 179.1875 191.859375 178.292969 C 201.578125 177.667969 210.683594 179.636719 218.546875 183.59375 C 223.199219 185.9375 227.421875 188.976562 231.0625 192.601562 C 233.894531 195.410156 236.378906 198.566406 238.46875 202.015625 Z M 238.46875 202.015625 " fill-opacity="1" fill-rule="nonzero"/><path fill="#371a45" d="M 188.308594 286.21875 C 168.949219 286.21875 151.734375 276.175781 142.800781 259.425781 C 141.449219 256.894531 140.308594 254.21875 139.398438 251.464844 C 137.667969 246.210938 136.796875 240.671875 136.796875 235 C 136.796875 234.136719 136.820312 233.242188 136.859375 232.339844 C 137.34375 222.394531 140.546875 212.597656 146.132812 204.011719 C 148.617188 200.1875 151.542969 196.644531 154.851562 193.46875 C 164.96875 183.722656 178.078125 177.875 191.773438 176.996094 C 201.378906 176.378906 210.832031 178.261719 219.125 182.433594 C 223.894531 184.828125 228.214844 187.9375 231.972656 191.675781 C 234.890625 194.570312 237.457031 197.824219 239.582031 201.34375 C 242.746094 206.589844 244.921875 212.34375 246.039062 218.445312 C 246.617188 221.585938 246.910156 224.835938 246.910156 228.097656 C 246.910156 229.777344 246.832031 231.492188 246.671875 233.179688 C 245.421875 246.726562 239.171875 259.59375 229.078125 269.410156 C 218.917969 279.289062 205.730469 285.214844 191.933594 286.101562 C 190.722656 286.179688 189.511719 286.21875 188.308594 286.21875 Z M 195.34375 179.480469 C 194.210938 179.480469 193.078125 179.519531 191.941406 179.589844 C 178.863281 180.429688 166.332031 186.023438 156.65625 195.347656 C 153.5 198.382812 150.691406 201.769531 148.316406 205.425781 C 142.984375 213.625 139.921875 222.96875 139.464844 232.457031 C 139.421875 233.3125 139.398438 234.167969 139.398438 234.992188 C 139.398438 240.386719 140.230469 245.65625 141.875 250.640625 C 142.738281 253.246094 143.824219 255.785156 145.105469 258.191406 C 153.578125 274.082031 169.921875 283.601562 188.316406 283.601562 C 189.464844 283.601562 190.609375 283.558594 191.773438 283.488281 C 219.09375 281.734375 241.578125 259.996094 244.085938 232.925781 C 244.234375 231.3125 244.304688 229.679688 244.304688 228.082031 C 244.304688 224.980469 244.03125 221.894531 243.476562 218.902344 C 242.414062 213.109375 240.351562 207.652344 237.351562 202.671875 C 235.335938 199.335938 232.90625 196.246094 230.144531 193.511719 C 226.578125 189.972656 222.480469 187.019531 217.953125 184.75 C 211.054688 181.285156 203.300781 179.480469 195.34375 179.480469 Z M 195.34375 179.480469 " fill-opacity="1" fill-rule="nonzero"/><path fill="#371a45" d="M 245.605469 228.097656 C 245.605469 229.769531 245.523438 231.421875 245.375 233.058594 C 245.191406 235.007812 244.90625 236.929688 244.527344 238.820312 C 222.835938 228.867188 216.695312 195.28125 215.097656 182.027344 C 216.269531 182.511719 217.414062 183.03125 218.53125 183.59375 C 223.191406 185.9375 227.40625 188.976562 231.046875 192.59375 C 231.65625 193.195312 232.25 193.8125 232.820312 194.453125 C 234.929688 196.777344 236.820312 199.300781 238.460938 202.015625 C 241.480469 207.019531 243.640625 212.636719 244.75 218.679688 C 245.074219 220.453125 245.3125 222.257812 245.445312 224.09375 C 245.554688 225.40625 245.605469 226.746094 245.605469 228.097656 Z M 245.605469 228.097656 " fill-opacity="0.2" fill-rule="nonzero"/><path fill="#ea7344" d="M 245.605469 228.097656 C 245.605469 229.769531 245.523438 231.421875 245.375 233.058594 C 231.457031 226.554688 218.546875 197.894531 218.53125 183.59375 C 223.183594 185.9375 227.40625 188.976562 231.046875 192.601562 C 233.515625 204.554688 240.554688 213.949219 244.75 218.679688 C 245.3125 221.71875 245.605469 224.863281 245.605469 228.097656 Z M 245.605469 228.097656 " fill-opacity="1" fill-rule="nonzero"/><path fill="#ffffff" d="M 245.082031 219.101562 C 235.824219 215.238281 228.523438 197.972656 228.167969 189.949219 C 229.597656 191.082031 230.222656 191.878906 231.511719 193.167969 C 233.957031 205 240.878906 214.320312 245.082031 219.101562 Z M 245.082031 219.101562 " fill-opacity="0.6" fill-rule="nonzero"/><path fill="#371a45" d="M 245.605469 228.097656 C 245.605469 229.769531 245.523438 231.421875 245.375 233.058594 C 231.503906 226.570312 218.632812 198.089844 218.539062 183.746094 C 218.539062 183.691406 218.539062 183.640625 218.539062 183.59375 C 218.617188 183.632812 218.703125 183.683594 218.785156 183.722656 C 220.082031 184.386719 221.339844 185.097656 222.566406 185.867188 C 224.265625 193.011719 230.578125 214.875 244.914062 219.589844 C 245.367188 222.34375 245.605469 225.1875 245.605469 228.097656 Z M 245.605469 228.097656 " fill-opacity="0.3" fill-rule="nonzero"/><path fill="#371a45" d="M 245.375 234.363281 C 245.183594 234.363281 244.996094 234.324219 244.820312 234.238281 C 230.613281 227.589844 217.234375 200.070312 217.234375 183.59375 C 217.234375 183.144531 217.46875 182.722656 217.851562 182.488281 C 218.238281 182.25 218.710938 182.226562 219.117188 182.433594 C 223.886719 184.828125 228.207031 187.9375 231.964844 191.675781 C 232.144531 191.855469 232.273438 192.085938 232.320312 192.339844 C 234.75 204.074219 241.757812 213.339844 245.722656 217.820312 C 245.878906 217.992188 245.984375 218.214844 246.03125 218.445312 C 246.609375 221.59375 246.902344 224.835938 246.902344 228.097656 C 246.902344 229.777344 246.824219 231.492188 246.664062 233.179688 C 246.625 233.597656 246.378906 233.976562 246.015625 234.191406 C 245.824219 234.300781 245.605469 234.363281 245.375 234.363281 Z M 219.921875 185.8125 C 220.984375 200.742188 232.257812 223.792969 244.226562 230.96875 C 244.28125 230.011719 244.304688 229.046875 244.304688 228.097656 C 244.304688 225.113281 244.046875 222.148438 243.539062 219.265625 C 239.410156 214.542969 232.429688 205.148438 229.867188 193.25 C 226.894531 190.351562 223.554688 187.851562 219.921875 185.8125 Z M 219.921875 185.8125 " fill-opacity="1" fill-rule="nonzero"/><path fill="#371a45" d="M 151.210938 267.308594 C 150.746094 267.355469 150.277344 267.402344 149.828125 267.449219 C 149.304688 266.832031 148.796875 266.207031 148.300781 265.566406 C 146.679688 263.453125 145.222656 261.199219 143.957031 258.816406 C 143.789062 258.5 143.625 258.191406 143.464844 257.875 C 153.246094 256.570312 162.976562 252.882812 164.84375 243.664062 C 168.816406 224.085938 162.984375 218.4375 161.234375 213.230469 C 160.300781 210.445312 154.34375 205.980469 148.941406 202.230469 C 149.644531 201.273438 150.367188 200.332031 151.125 199.414062 C 152.273438 198.027344 153.480469 196.683594 154.75 195.410156 C 162.984375 201.90625 175.933594 213.515625 177.242188 223.191406 C 178.878906 235.363281 178.757812 264.488281 151.210938 267.308594 Z M 151.210938 267.308594 " fill-opacity="0.2" fill-rule="nonzero"/><path fill="#ea7344" d="M 173.140625 233.34375 C 171.472656 258.050781 151.820312 259.308594 143.957031 258.808594 C 143.039062 257.089844 141.734375 253.625 140.730469 250.769531 C 140.292969 249.535156 139.914062 248.410156 139.644531 247.597656 C 145.554688 248.292969 160.769531 251.828125 161.433594 233.335938 C 161.582031 229.199219 161.140625 225.582031 160.324219 222.441406 C 157.660156 212.167969 150.917969 206.90625 147.222656 204.714844 C 149.660156 200.972656 152.523438 197.507812 155.753906 194.402344 C 163.085938 199.925781 174.582031 212.082031 173.140625 233.34375 Z M 173.140625 233.34375 " fill-opacity="1" fill-rule="nonzero"/><path fill="#ffffff" d="M 160.632812 245.285156 C 155.136719 251.902344 145.625 251.84375 140.722656 250.769531 C 140.285156 249.535156 139.90625 248.410156 139.636719 247.597656 C 145.546875 248.292969 160.761719 251.828125 161.425781 233.335938 C 161.574219 229.199219 161.023438 222.234375 160.207031 219.09375 C 164.140625 226.648438 166.355469 238.402344 160.632812 245.285156 Z M 160.632812 245.285156 " fill-opacity="0.6" fill-rule="nonzero"/><path fill="#371a45" d="M 173.65625 233.566406 C 171.988281 258.269531 152.335938 259.527344 144.464844 259.03125 C 143.78125 257.757812 142.898438 255.523438 142.066406 253.300781 C 150.753906 253.460938 167.960938 250.816406 169.519531 227.765625 C 170.261719 216.710938 167.515625 208.117188 163.679688 201.644531 C 169.433594 208.449219 174.652344 218.816406 173.65625 233.566406 Z M 173.65625 233.566406 " fill-opacity="0.3" fill-rule="nonzero"/><path fill="#371a45" d="M 146.316406 260.183594 C 145.398438 260.183594 144.574219 260.152344 143.871094 260.105469 C 143.417969 260.074219 143.015625 259.820312 142.800781 259.417969 C 141.488281 256.949219 139.414062 251.085938 138.402344 248.007812 C 138.261719 247.585938 138.347656 247.121094 138.632812 246.773438 C 138.917969 246.425781 139.351562 246.25 139.796875 246.304688 C 140.230469 246.351562 140.722656 246.425781 141.25 246.496094 C 145.191406 247.035156 151.78125 247.9375 155.917969 244.453125 C 158.53125 242.261719 159.945312 238.503906 160.136719 233.296875 C 160.753906 216.148438 150.847656 208.386719 146.566406 205.839844 C 146.257812 205.65625 146.046875 205.363281 145.964844 205.015625 C 145.886719 204.667969 145.949219 204.304688 146.140625 204.011719 C 148.625 200.1875 151.550781 196.644531 154.859375 193.46875 C 155.316406 193.027344 156.03125 192.988281 156.542969 193.367188 C 163.871094 198.875 175.941406 211.410156 174.457031 233.429688 C 173.703125 244.566406 169.34375 252.382812 161.511719 256.671875 C 156.203125 259.566406 150.347656 260.183594 146.316406 260.183594 Z M 144.78125 257.550781 C 152.976562 257.90625 170.308594 255.929688 171.84375 233.257812 C 173.191406 213.332031 162.800781 201.644531 155.855469 196.136719 C 153.339844 198.652344 151.054688 201.40625 149.050781 204.335938 C 154.148438 207.722656 163.347656 216.253906 162.738281 233.398438 C 162.523438 239.375 160.792969 243.765625 157.597656 246.457031 C 152.816406 250.484375 145.964844 249.773438 141.550781 249.179688 C 142.476562 251.875 143.796875 255.492188 144.78125 257.550781 Z M 144.78125 257.550781 " fill-opacity="1" fill-rule="nonzero"/><path fill="#371a45" d="M 232.828125 194.453125 C 199.320312 241.375 153.007812 223.238281 141.023438 217.4375 C 142.546875 212.945312 144.644531 208.679688 147.214844 204.722656 C 149.652344 200.980469 152.515625 197.515625 155.746094 194.410156 C 165.285156 185.226562 177.953125 179.1875 191.851562 178.292969 C 201.570312 177.667969 210.675781 179.636719 218.539062 183.59375 C 223.199219 185.9375 227.414062 188.976562 231.054688 192.59375 C 231.664062 193.203125 232.257812 193.820312 232.828125 194.453125 Z M 232.828125 194.453125 " fill-opacity="0.4" fill-rule="nonzero"/><path fill="#413757" d="M 97.816406 133.046875 C 97.839844 133.101562 97.863281 133.164062 97.894531 133.210938 C 101.945312 142.179688 112.414062 146.253906 121.378906 142.320312 C 130.398438 138.355469 134.464844 127.777344 130.476562 118.691406 C 130.007812 117.640625 129.464844 116.652344 128.832031 115.734375 C 124.050781 108.746094 114.890625 105.914062 106.914062 109.417969 C 97.894531 113.382812 93.828125 123.960938 97.816406 133.046875 Z M 97.816406 133.046875 " fill-opacity="1" fill-rule="nonzero"/><path fill="#feffff" d="M 120.855469 123.269531 C 121.046875 123.703125 121.191406 124.152344 121.296875 124.617188 C 121.398438 125.082031 121.457031 125.550781 121.46875 126.023438 C 121.480469 126.5 121.445312 126.972656 121.363281 127.4375 C 121.285156 127.90625 121.160156 128.359375 120.988281 128.800781 C 120.820312 129.246094 120.609375 129.664062 120.355469 130.066406 C 120.101562 130.464844 119.8125 130.835938 119.488281 131.175781 C 119.160156 131.519531 118.804688 131.824219 118.417969 132.097656 C 118.035156 132.367188 117.625 132.597656 117.191406 132.789062 C 116.761719 132.980469 116.3125 133.125 115.855469 133.226562 C 115.394531 133.328125 114.925781 133.382812 114.453125 133.390625 C 113.980469 133.398438 113.511719 133.363281 113.046875 133.277344 C 112.582031 133.195312 112.128906 133.066406 111.6875 132.890625 C 111.25 132.71875 110.828125 132.503906 110.429688 132.246094 C 110.03125 131.992188 109.660156 131.699219 109.316406 131.371094 C 108.976562 131.039062 108.667969 130.679688 108.398438 130.289062 C 108.125 129.902344 107.894531 129.488281 107.703125 129.054688 C 107.511719 128.617188 107.363281 128.167969 107.261719 127.703125 C 107.15625 127.242188 107.097656 126.769531 107.089844 126.296875 C 107.078125 125.820312 107.109375 125.351562 107.191406 124.882812 C 107.273438 124.414062 107.398438 123.960938 107.566406 123.519531 C 107.738281 123.078125 107.949219 122.65625 108.203125 122.257812 C 108.453125 121.855469 108.742188 121.484375 109.070312 121.144531 C 109.394531 120.800781 109.75 120.496094 110.136719 120.222656 C 110.523438 119.953125 110.933594 119.722656 111.363281 119.53125 C 111.796875 119.34375 112.242188 119.199219 112.703125 119.097656 C 113.164062 118.996094 113.628906 118.9375 114.101562 118.929688 C 114.574219 118.921875 115.042969 118.960938 115.507812 119.042969 C 115.972656 119.125 116.425781 119.253906 116.867188 119.429688 C 117.308594 119.601562 117.726562 119.816406 118.128906 120.074219 C 118.527344 120.328125 118.898438 120.621094 119.238281 120.953125 C 119.582031 121.28125 119.886719 121.640625 120.160156 122.03125 C 120.429688 122.421875 120.664062 122.832031 120.855469 123.269531 Z M 120.855469 123.269531 " fill-opacity="1" fill-rule="nonzero"/><path fill="#371a45" d="M 97.894531 133.210938 C 101.945312 142.179688 112.414062 146.253906 121.378906 142.320312 C 130.398438 138.355469 134.464844 127.777344 130.476562 118.691406 C 130.007812 117.640625 129.464844 116.652344 128.832031 115.734375 L 128.457031 115.707031 C 128 115.90625 116.972656 118.945312 113.6875 137.113281 C 113.679688 137.105469 105.285156 140.992188 97.894531 133.210938 Z M 97.894531 133.210938 " fill-opacity="0.4" fill-rule="nonzero"/><path fill="#ffffff" d="M 97.746094 132.886719 C 98.054688 133.601562 98.410156 134.273438 98.796875 134.921875 C 96.558594 127.363281 99.105469 118.320312 105.46875 113.792969 C 105.886719 114.546875 107.605469 114.539062 109.375 113.761719 C 110.980469 113.058594 112.097656 111.949219 112.082031 111.136719 C 119.445312 110.035156 127.3125 114.207031 131.195312 120.679688 C 130.980469 119.957031 130.722656 119.238281 130.40625 118.527344 C 126.410156 109.441406 115.863281 105.289062 106.84375 109.25 C 97.824219 113.214844 93.75 123.796875 97.746094 132.886719 Z M 97.746094 132.886719 " fill-opacity="0.6" fill-rule="nonzero"/><path fill="#371a45" d="M 114.265625 145.144531 C 106.867188 145.144531 99.777344 140.816406 96.597656 133.585938 C 94.527344 128.867188 94.398438 123.628906 96.242188 118.835938 C 98.085938 114.039062 101.6875 110.257812 106.378906 108.199219 C 111.070312 106.132812 116.28125 106.039062 121.0625 107.921875 C 125.839844 109.804688 129.613281 113.4375 131.6875 118.152344 C 133.757812 122.871094 133.886719 128.109375 132.042969 132.902344 C 130.199219 137.699219 126.597656 141.480469 121.90625 143.539062 C 119.421875 144.632812 116.828125 145.144531 114.265625 145.144531 Z M 99.035156 132.507812 C 102.730469 140.902344 112.507812 144.757812 120.839844 141.09375 C 124.875 139.320312 127.96875 136.070312 129.558594 131.9375 C 131.148438 127.808594 131.039062 123.289062 129.25 119.214844 C 127.460938 115.148438 124.203125 112.011719 120.089844 110.390625 C 115.972656 108.769531 111.480469 108.855469 107.445312 110.628906 C 103.410156 112.402344 100.316406 115.652344 98.726562 119.785156 C 97.136719 123.921875 97.246094 128.441406 99.035156 132.507812 Z M 99.035156 132.507812 " fill-opacity="1" fill-rule="nonzero"/><path fill="#413757" d="M 206.101562 95.585938 C 206.109375 95.640625 206.117188 95.703125 206.125 95.761719 C 207.398438 104.734375 201.253906 113.066406 192.34375 114.417969 C 183.371094 115.78125 174.992188 109.550781 173.617188 100.515625 C 173.457031 99.464844 173.402344 98.425781 173.441406 97.40625 C 173.71875 89.621094 179.457031 82.894531 187.382812 81.691406 C 196.347656 80.328125 204.734375 86.550781 206.101562 95.585938 Z M 206.101562 95.585938 " fill-opacity="1" fill-rule="nonzero"/><path fill="#feffff" d="M 196.453125 97.363281 C 196.519531 97.796875 196.542969 98.230469 196.523438 98.667969 C 196.503906 99.105469 196.441406 99.535156 196.339844 99.960938 C 196.234375 100.386719 196.089844 100.796875 195.90625 101.195312 C 195.722656 101.589844 195.5 101.964844 195.242188 102.316406 C 194.984375 102.667969 194.695312 102.992188 194.375 103.289062 C 194.054688 103.582031 193.707031 103.84375 193.335938 104.070312 C 192.964844 104.292969 192.574219 104.480469 192.164062 104.628906 C 191.753906 104.777344 191.335938 104.886719 190.90625 104.949219 C 190.476562 105.015625 190.042969 105.039062 189.609375 105.019531 C 189.175781 104.996094 188.746094 104.933594 188.324219 104.828125 C 187.902344 104.722656 187.496094 104.578125 187.101562 104.390625 C 186.707031 104.203125 186.335938 103.980469 185.984375 103.722656 C 185.632812 103.460938 185.3125 103.167969 185.019531 102.84375 C 184.726562 102.519531 184.464844 102.171875 184.242188 101.796875 C 184.015625 101.421875 183.828125 101.027344 183.679688 100.617188 C 183.53125 100.203125 183.425781 99.78125 183.359375 99.347656 C 183.292969 98.914062 183.269531 98.480469 183.289062 98.042969 C 183.308594 97.605469 183.371094 97.175781 183.476562 96.75 C 183.578125 96.324219 183.722656 95.914062 183.90625 95.515625 C 184.089844 95.121094 184.3125 94.746094 184.570312 94.394531 C 184.828125 94.042969 185.117188 93.71875 185.4375 93.421875 C 185.757812 93.128906 186.105469 92.867188 186.476562 92.640625 C 186.847656 92.417969 187.238281 92.230469 187.648438 92.082031 C 188.058594 91.933594 188.476562 91.824219 188.90625 91.761719 C 189.335938 91.695312 189.769531 91.671875 190.203125 91.691406 C 190.636719 91.714844 191.066406 91.777344 191.488281 91.882812 C 191.910156 91.988281 192.320312 92.132812 192.710938 92.320312 C 193.105469 92.507812 193.480469 92.730469 193.828125 92.988281 C 194.179688 93.25 194.5 93.542969 194.796875 93.867188 C 195.089844 94.191406 195.347656 94.539062 195.574219 94.914062 C 195.796875 95.289062 195.984375 95.683594 196.132812 96.09375 C 196.28125 96.507812 196.386719 96.929688 196.453125 97.363281 Z M 196.453125 97.363281 " fill-opacity="1" fill-rule="nonzero"/><path fill="#371a45" d="M 206.125 95.761719 C 207.398438 104.734375 201.253906 113.066406 192.34375 114.417969 C 183.371094 115.78125 174.992188 109.550781 173.617188 100.515625 C 173.457031 99.464844 173.402344 98.425781 173.441406 97.40625 L 173.71875 97.199219 C 174.171875 97.128906 184.25 94.050781 195.761719 106.570312 C 195.761719 106.570312 204.210938 105.445312 206.125 95.761719 Z M 206.125 95.761719 " fill-opacity="0.4" fill-rule="nonzero"/><path fill="#ffffff" d="M 206.078125 95.425781 C 206.1875 96.132812 206.246094 96.835938 206.261719 97.53125 C 204.273438 90.554688 197.835938 84.769531 190.660156 84.382812 C 190.707031 85.171875 189.367188 86.011719 187.605469 86.28125 C 186.007812 86.527344 184.589844 86.210938 184.210938 85.566406 C 177.945312 88.34375 173.871094 95.460938 174.042969 102.414062 C 173.855469 101.742188 173.703125 101.0625 173.601562 100.351562 C 172.234375 91.3125 178.394531 82.878906 187.359375 81.515625 C 196.324219 80.164062 204.710938 86.390625 206.078125 95.425781 Z M 206.078125 95.425781 " fill-opacity="0.6" fill-rule="nonzero"/><path fill="#371a45" d="M 189.882812 115.929688 C 181.25 115.929688 173.640625 109.558594 172.304688 100.714844 C 171.59375 95.988281 172.738281 91.273438 175.546875 87.433594 C 178.355469 83.589844 182.484375 81.082031 187.175781 80.371094 C 191.867188 79.65625 196.558594 80.828125 200.382812 83.667969 C 204.203125 86.5 206.703125 90.664062 207.414062 95.386719 C 208.894531 105.136719 202.21875 114.261719 192.542969 115.734375 C 191.648438 115.867188 190.761719 115.929688 189.882812 115.929688 Z M 189.859375 82.832031 C 189.101562 82.832031 188.339844 82.886719 187.582031 83.003906 C 183.59375 83.605469 180.089844 85.742188 177.699219 89.011719 C 175.308594 92.277344 174.328125 96.296875 174.9375 100.316406 C 176.195312 108.617188 183.917969 114.347656 192.144531 113.105469 C 200.375 111.855469 206.046875 104.09375 204.789062 95.792969 C 204.179688 91.773438 202.050781 88.226562 198.800781 85.8125 C 196.164062 83.859375 193.054688 82.832031 189.859375 82.832031 Z M 189.859375 82.832031 " fill-opacity="1" fill-rule="nonzero"/><path fill="#ffffff" d="M 239.011719 158.289062 C 239.011719 171.148438 233.347656 181.839844 226.101562 191.585938 C 214.75 206.882812 199.597656 216.394531 176.324219 218.097656 C 161.925781 219.148438 146.65625 215.183594 136.402344 207.390625 C 125.878906 199.398438 119.453125 187.140625 116.78125 173.570312 C 116.78125 173.570312 116.773438 173.5625 116.78125 173.5625 C 115.816406 168.65625 115.339844 163.566406 115.339844 158.457031 C 115.339844 125.425781 130.839844 97.96875 165.453125 97.96875 C 180.058594 97.96875 190.460938 103.160156 203.601562 113.667969 C 212.613281 120.867188 221.078125 125.292969 229.148438 133.132812 C 229.378906 133.363281 229.605469 133.585938 229.835938 133.8125 C 237.429688 141.410156 239.011719 148.644531 239.011719 158.289062 Z M 239.011719 158.289062 " fill-opacity="1" fill-rule="nonzero"/><path fill="#371a45" d="M 171.765625 219.589844 C 158.371094 219.589844 144.859375 215.484375 135.601562 208.449219 C 121.882812 198.019531 114.011719 179.796875 114.011719 158.457031 C 114.011719 140.863281 118.277344 125.84375 126.355469 115.027344 C 135.332031 102.992188 148.855469 96.636719 165.460938 96.636719 C 181.09375 96.636719 191.964844 102.753906 204.433594 112.621094 C 208.078125 115.511719 211.519531 117.902344 214.851562 120.210938 C 220.359375 124.035156 225.554688 127.648438 230.785156 132.878906 C 238.753906 140.847656 240.351562 148.507812 240.351562 158.289062 C 240.351562 172.785156 233.308594 184.125 227.179688 192.386719 C 214.679688 209.21875 198.554688 217.8125 176.433594 219.425781 C 174.882812 219.535156 173.324219 219.589844 171.765625 219.589844 Z M 165.460938 99.304688 C 134.914062 99.304688 116.679688 121.421875 116.679688 158.464844 C 116.679688 178.964844 124.164062 196.414062 137.214844 206.335938 C 147.050781 213.816406 162.003906 217.8125 176.234375 216.773438 C 197.535156 215.222656 213.039062 206.96875 225.035156 190.804688 C 233.785156 179.019531 237.683594 168.996094 237.683594 158.296875 C 237.683594 148.960938 236.246094 142.121094 228.902344 134.769531 C 223.847656 129.714844 218.738281 126.160156 213.332031 122.410156 C 209.96875 120.078125 206.496094 117.664062 202.785156 114.726562 C 190.445312 104.953125 180.382812 99.304688 165.460938 99.304688 Z M 165.460938 99.304688 " fill-opacity="1" fill-rule="nonzero"/><path fill="#371a45" d="M 199.335938 195.988281 C 198.6875 197.324219 197.835938 198.320312 196.710938 198.796875 C 192.613281 200.511719 188.742188 194.832031 186.234375 189.796875 C 184.441406 186.207031 183.339844 182.9375 183.339844 182.9375 C 190.925781 183.507812 191.835938 175.007812 191.71875 172.855469 C 191.71875 172.855469 196.664062 174.742188 200.351562 172.484375 C 200.414062 172.90625 202.683594 189.054688 199.335938 195.988281 Z M 199.335938 195.988281 " fill-opacity="1" fill-rule="nonzero"/><path fill="#f03784" d="M 199.335938 195.988281 C 198.6875 197.324219 197.835938 198.320312 196.710938 198.796875 C 192.613281 200.511719 188.742188 194.832031 186.234375 189.796875 C 190.375 188.589844 197.675781 187.734375 199.335938 195.988281 Z M 199.335938 195.988281 " fill-opacity="1" fill-rule="nonzero"/><path fill="#371a45" d="M 178.191406 166.296875 C 177.667969 163.148438 188.007812 155.820312 190.863281 158.042969 C 193.339844 159.964844 191.09375 168.125 188.65625 169.28125 C 185.886719 170.585938 178.679688 169.199219 178.191406 166.296875 Z M 178.191406 166.296875 " fill-opacity="1" fill-rule="nonzero"/><path fill="#ffffff" d="M 187.484375 160.65625 C 187.558594 160.769531 187.574219 160.914062 187.535156 161.089844 C 187.492188 161.265625 187.398438 161.457031 187.246094 161.667969 C 187.097656 161.878906 186.902344 162.09375 186.667969 162.308594 C 186.433594 162.523438 186.171875 162.726562 185.886719 162.910156 C 185.601562 163.097656 185.3125 163.257812 185.019531 163.386719 C 184.726562 163.515625 184.457031 163.605469 184.203125 163.65625 C 183.949219 163.710938 183.734375 163.71875 183.554688 163.6875 C 183.378906 163.652344 183.253906 163.582031 183.179688 163.46875 C 183.105469 163.355469 183.089844 163.210938 183.132812 163.039062 C 183.171875 162.863281 183.269531 162.667969 183.417969 162.457031 C 183.570312 162.246094 183.761719 162.03125 183.996094 161.816406 C 184.234375 161.601562 184.492188 161.402344 184.78125 161.214844 C 185.066406 161.027344 185.355469 160.871094 185.644531 160.742188 C 185.9375 160.613281 186.210938 160.523438 186.464844 160.46875 C 186.71875 160.417969 186.933594 160.40625 187.109375 160.441406 C 187.289062 160.472656 187.414062 160.546875 187.484375 160.65625 Z M 187.484375 160.65625 " fill-opacity="1" fill-rule="nonzero"/><path fill="#371a45" d="M 184.058594 184.300781 C 183.792969 184.300781 183.523438 184.292969 183.238281 184.265625 C 180.601562 184.070312 178.59375 183.113281 177.265625 181.417969 C 175.058594 178.609375 175.652344 174.84375 175.683594 174.683594 C 175.800781 173.957031 176.488281 173.464844 177.21875 173.59375 C 177.945312 173.710938 178.425781 174.398438 178.308594 175.121094 C 178.300781 175.183594 177.898438 177.929688 179.367188 179.789062 C 180.222656 180.863281 181.585938 181.480469 183.433594 181.617188 C 185.308594 181.757812 186.78125 181.285156 187.921875 180.160156 C 190.128906 178 190.453125 174.121094 190.390625 172.929688 C 190.367188 172.476562 190.570312 172.050781 190.933594 171.78125 C 191.300781 171.519531 191.773438 171.449219 192.195312 171.613281 C 192.445312 171.710938 198.410156 173.894531 201.277344 169.808594 C 202.550781 168 202.859375 165.75 202.113281 163.796875 C 201.449219 162.070312 200.074219 160.851562 198.332031 160.449219 C 197.613281 160.28125 197.167969 159.570312 197.328125 158.851562 C 197.492188 158.128906 198.207031 157.6875 198.925781 157.847656 C 201.542969 158.449219 203.609375 160.257812 204.597656 162.832031 C 205.667969 165.609375 205.238281 168.789062 203.460938 171.328125 C 200.515625 175.523438 195.601562 175.160156 192.992188 174.589844 C 192.761719 176.835938 191.933594 179.953125 189.789062 182.050781 C 188.269531 183.546875 186.347656 184.300781 184.058594 184.300781 Z M 184.058594 184.300781 " fill-opacity="1" fill-rule="nonzero"/><path fill="#371a45" d="M 195.199219 200.441406 C 192.511719 200.441406 188.980469 198.289062 185.042969 190.390625 C 183.230469 186.761719 182.121094 183.5 182.074219 183.367188 C 181.835938 182.667969 182.21875 181.917969 182.914062 181.679688 C 183.609375 181.441406 184.367188 181.824219 184.597656 182.519531 C 184.605469 182.550781 185.699219 185.746094 187.421875 189.214844 C 188.777344 191.925781 192.058594 197.773438 195.214844 197.773438 C 195.539062 197.773438 195.863281 197.710938 196.1875 197.578125 C 196.941406 197.261719 197.597656 196.53125 198.136719 195.417969 C 201.316406 188.839844 199.050781 172.832031 199.027344 172.675781 C 198.925781 171.945312 199.433594 171.273438 200.160156 171.164062 C 200.886719 171.0625 201.5625 171.566406 201.671875 172.296875 C 201.773438 172.984375 204.070312 189.269531 200.539062 196.582031 C 199.710938 198.296875 198.59375 199.460938 197.226562 200.039062 C 196.617188 200.277344 195.945312 200.441406 195.199219 200.441406 Z M 195.199219 200.441406 " fill-opacity="1" fill-rule="nonzero"/><path fill="#371a45" d="M 239.011719 158.289062 C 239.011719 171.148438 233.347656 181.839844 226.101562 191.585938 C 214.75 206.882812 199.597656 216.394531 176.324219 218.097656 C 161.925781 219.148438 146.65625 215.183594 136.402344 207.390625 C 125.878906 199.398438 119.453125 187.140625 116.78125 173.570312 C 123.726562 192.578125 142.554688 215.183594 185.269531 209.421875 C 227.050781 203.789062 244.875 155.496094 229.148438 133.132812 C 229.378906 133.363281 229.605469 133.585938 229.835938 133.8125 C 237.429688 141.410156 239.011719 148.644531 239.011719 158.289062 Z M 239.011719 158.289062 " fill-opacity="0.3" fill-rule="nonzero"/><path fill="#371a45" d="M 186.796875 169.960938 C 186.796875 169.960938 188.792969 178.332031 182.414062 179.527344 C 182.414062 179.527344 179.304688 180.328125 176.433594 178.332031 C 176.433594 178.332031 185.839844 192.578125 190.800781 174.984375 L 190.984375 173.742188 C 190.984375 173.742188 202.9375 176.933594 202.542969 165.765625 C 202.542969 165.765625 194.566406 173.742188 188.988281 166.566406 Z M 186.796875 169.960938 " fill-opacity="0.3" fill-rule="nonzero"/><path fill="#413757" d="M 150.839844 148.003906 C 145.144531 151.484375 137.96875 159.363281 141.773438 174.613281 C 145.097656 187.898438 154.75 191.136719 163.425781 185.753906 C 172.113281 180.367188 167.445312 172.945312 167.105469 165.246094 C 166.773438 157.789062 170.984375 154.523438 167.867188 150.042969 C 165.792969 147.066406 158.664062 143.222656 150.839844 148.003906 Z M 150.839844 148.003906 " fill-opacity="1" fill-rule="nonzero"/><path fill="#413757" d="M 190.761719 127.617188 C 196.203125 124.652344 207.167969 124.554688 216.84375 133.863281 C 226.332031 143.570312 224.664062 153.359375 216.292969 157.847656 C 207.929688 162.332031 203.886719 154.554688 197.683594 150.257812 C 191.671875 146.09375 187.074219 147.921875 184.773438 142.976562 C 183.253906 139.691406 183.285156 131.691406 190.761719 127.617188 Z M 190.761719 127.617188 " fill-opacity="1" fill-rule="nonzero"/><path fill="#ffffff" d="M 152.175781 169.613281 C 151.480469 168.386719 151.480469 167.128906 151.796875 165.972656 C 152.128906 164.824219 152.875 163.757812 153.902344 163.003906 C 154.171875 162.832031 154.414062 162.632812 154.714844 162.507812 C 155.015625 162.378906 155.292969 162.230469 155.601562 162.144531 C 156.226562 161.984375 156.851562 161.859375 157.484375 161.921875 C 158.109375 161.9375 158.71875 162.132812 159.273438 162.378906 C 159.558594 162.5 159.8125 162.695312 160.066406 162.894531 C 160.191406 162.996094 160.308594 163.101562 160.429688 163.210938 C 160.546875 163.335938 160.65625 163.449219 160.761719 163.589844 L 160.832031 163.6875 C 160.871094 163.742188 160.855469 163.8125 160.808594 163.851562 C 160.785156 163.867188 160.761719 163.875 160.738281 163.875 C 159.8125 163.875 158.894531 163.898438 158.015625 164.152344 C 157.574219 164.246094 157.160156 164.429688 156.742188 164.597656 C 156.347656 164.808594 155.941406 165.015625 155.59375 165.300781 C 154.859375 165.820312 154.242188 166.496094 153.71875 167.238281 C 153.457031 167.609375 153.222656 168.007812 153.015625 168.410156 C 152.792969 168.8125 152.605469 169.242188 152.460938 169.667969 C 152.4375 169.730469 152.367188 169.769531 152.304688 169.746094 C 152.273438 169.738281 152.25 169.714844 152.230469 169.691406 Z M 152.175781 169.613281 " fill-opacity="1" fill-rule="nonzero"/><path fill="#ffffff" d="M 199.992188 143.617188 C 199.1875 142.558594 199.035156 141.386719 199.1875 140.269531 C 199.351562 139.15625 199.914062 138.070312 200.785156 137.242188 C 201.210938 136.820312 201.734375 136.488281 202.265625 136.21875 C 202.828125 135.996094 203.394531 135.800781 203.988281 135.785156 C 204.574219 135.722656 205.160156 135.824219 205.714844 135.988281 C 205.992188 136.0625 206.261719 136.210938 206.519531 136.378906 C 206.648438 136.464844 206.773438 136.542969 206.902344 136.632812 C 207.027344 136.734375 207.144531 136.820312 207.257812 136.941406 L 207.335938 137.019531 C 207.375 137.066406 207.375 137.136719 207.328125 137.175781 C 207.3125 137.191406 207.289062 137.199219 207.265625 137.207031 C 206.402344 137.328125 205.546875 137.460938 204.765625 137.800781 C 204.359375 137.945312 203.996094 138.167969 203.632812 138.371094 C 203.292969 138.625 202.9375 138.863281 202.652344 139.171875 C 202.035156 139.75 201.535156 140.453125 201.140625 141.210938 C 200.945312 141.59375 200.769531 141.988281 200.628906 142.398438 C 200.46875 142.804688 200.351562 143.222656 200.261719 143.640625 C 200.246094 143.707031 200.191406 143.746094 200.128906 143.738281 C 200.097656 143.730469 200.074219 143.714844 200.058594 143.6875 Z M 199.992188 143.617188 " fill-opacity="1" fill-rule="nonzero"/><path fill="#413757" d="M 234.664062 272.230469 C 231.015625 281.589844 220.40625 291.402344 212.929688 292.503906 C 201.03125 294.25 181.449219 284.351562 181.449219 284.351562 C 181.449219 262.496094 188.007812 251.964844 197.597656 247.824219 L 197.605469 247.824219 C 202.359375 245.769531 207.859375 245.292969 213.671875 245.785156 C 215.390625 245.933594 217.121094 246.164062 218.878906 246.457031 C 223.546875 247.253906 228.902344 250.355469 232.96875 257.441406 C 233.800781 258.902344 234.582031 260.535156 235.296875 262.355469 C 236.417969 265.25 236.03125 268.707031 234.664062 272.230469 Z M 234.664062 272.230469 " fill-opacity="1" fill-rule="nonzero"/><path fill="#ffffff" d="M 235.296875 270.363281 C 234.410156 265.644531 230.714844 255.167969 220.382812 250.523438 C 211.757812 246.644531 203.207031 247.613281 197.613281 249.226562 C 197.613281 249.226562 186.671875 252.335938 184.566406 253.460938 C 193.222656 248.339844 202.738281 243.757812 213.671875 245.777344 C 215.445312 246.101562 217.34375 246.550781 219.386719 247.121094 C 225.152344 248.742188 229.621094 252.859375 232.96875 257.433594 C 233.800781 258.894531 234.582031 260.527344 235.296875 262.34375 C 236.417969 265.25 236.671875 266.839844 235.296875 270.363281 Z M 235.296875 270.363281 " fill-opacity="0.6" fill-rule="nonzero"/><path fill="#ffffff" d="M 230.519531 261.710938 C 231.035156 262.242188 231.457031 262.851562 231.789062 263.535156 C 232.121094 264.222656 232.355469 264.972656 232.496094 265.789062 C 232.632812 266.605469 232.671875 267.46875 232.609375 268.378906 C 232.550781 269.292969 232.390625 270.234375 232.132812 271.210938 C 231.875 272.183594 231.523438 273.171875 231.082031 274.171875 C 230.636719 275.171875 230.109375 276.164062 229.492188 277.148438 C 228.878906 278.132812 228.191406 279.09375 227.433594 280.027344 C 226.671875 280.960938 225.855469 281.851562 224.976562 282.699219 C 224.101562 283.542969 223.183594 284.332031 222.222656 285.058594 C 221.261719 285.78125 220.277344 286.4375 219.273438 287.015625 C 218.265625 287.59375 217.253906 288.085938 216.242188 288.496094 C 215.226562 288.902344 214.226562 289.21875 213.246094 289.441406 C 212.261719 289.664062 211.3125 289.789062 210.402344 289.816406 C 209.488281 289.84375 208.625 289.777344 207.816406 289.609375 C 207.007812 289.441406 206.265625 289.179688 205.589844 288.824219 C 204.914062 288.464844 204.324219 288.023438 203.808594 287.492188 C 203.296875 286.960938 202.875 286.351562 202.542969 285.664062 C 202.210938 284.976562 201.976562 284.226562 201.835938 283.410156 C 201.699219 282.597656 201.660156 281.730469 201.71875 280.820312 C 201.78125 279.90625 201.941406 278.964844 202.199219 277.988281 C 202.453125 277.015625 202.804688 276.027344 203.25 275.03125 C 203.695312 274.03125 204.222656 273.039062 204.835938 272.050781 C 205.449219 271.066406 206.136719 270.109375 206.898438 269.171875 C 207.65625 268.238281 208.476562 267.351562 209.351562 266.503906 C 210.230469 265.65625 211.148438 264.871094 212.109375 264.144531 C 213.070312 263.417969 214.050781 262.765625 215.058594 262.1875 C 216.066406 261.609375 217.074219 261.113281 218.089844 260.707031 C 219.105469 260.296875 220.101562 259.980469 221.085938 259.757812 C 222.066406 259.535156 223.015625 259.410156 223.929688 259.382812 C 224.84375 259.355469 225.707031 259.425781 226.515625 259.59375 C 227.324219 259.757812 228.066406 260.019531 228.742188 260.378906 C 229.414062 260.734375 230.007812 261.179688 230.519531 261.710938 Z M 230.519531 261.710938 " fill-opacity="1" fill-rule="nonzero"/><path fill="#371a45" d="M 209.890625 294.003906 C 197.820312 294.003906 181.609375 285.886719 180.863281 285.507812 C 180.222656 285.183594 179.960938 284.398438 180.285156 283.757812 C 180.609375 283.117188 181.394531 282.855469 182.035156 283.179688 C 182.226562 283.277344 201.394531 292.875 212.738281 291.203125 C 218.625 290.34375 227.089844 283.300781 231.609375 275.511719 C 234.472656 270.589844 235.34375 266.082031 234.078125 262.820312 C 230.199219 252.890625 223.957031 249.796875 218.410156 247.667969 C 211.179688 244.898438 195.847656 244.273438 185.46875 254.394531 C 184.953125 254.898438 184.132812 254.882812 183.625 254.371094 C 183.125 253.855469 183.132812 253.03125 183.648438 252.527344 C 194.898438 241.566406 211.511719 242.238281 219.335938 245.238281 C 225.847656 247.730469 232.4375 251.472656 236.496094 261.878906 C 238.507812 267.023438 236.171875 272.847656 233.855469 276.828125 C 228.902344 285.355469 219.789062 292.804688 213.113281 293.792969 C 212.089844 293.941406 211.007812 294.003906 209.890625 294.003906 Z M 209.890625 294.003906 " fill-opacity="1" fill-rule="nonzero"/><path fill="#371a45" d="M 232.882812 276.226562 C 228.238281 284.226562 219.496094 291.609375 213.070312 292.558594 C 201.171875 294.304688 181.59375 284.40625 181.59375 284.40625 C 181.59375 279.058594 181.300781 273.488281 182.613281 270.101562 C 182.550781 270.402344 206.527344 284.566406 219.417969 283.21875 C 223.5625 282.785156 228.539062 280.046875 232.882812 276.226562 Z M 232.882812 276.226562 " fill-opacity="0.3" fill-rule="nonzero"/></svg>