<svg xmlns="http://www.w3.org/2000/svg" xmlns:xlink="http://www.w3.org/1999/xlink" width="500" zoomAndPan="magnify" viewBox="0 0 375 374.999991" height="500" preserveAspectRatio="xMidYMid meet" version="1.0"><defs><clipPath id="96c3bf7f90"><path d="M 228 57 L 366.585938 57 L 366.585938 231 L 228 231 Z M 228 57 " clip-rule="nonzero"/></clipPath><clipPath id="2a02648087"><path d="M 8.085938 154 L 136 154 L 136 268 L 8.085938 268 Z M 8.085938 154 " clip-rule="nonzero"/></clipPath><clipPath id="ee17dac5f1"><path d="M 8.085938 218 L 35 218 L 35 243 L 8.085938 243 Z M 8.085938 218 " clip-rule="nonzero"/></clipPath><clipPath id="836dae6747"><path d="M 8.085938 228 L 26 228 L 26 243 L 8.085938 243 Z M 8.085938 228 " clip-rule="nonzero"/></clipPath></defs><rect x="-37.5" width="450" fill="#ffffff" y="-37.499999" height="449.999989" fill-opacity="1"/><rect x="-37.5" width="450" fill="#ffffff" y="-37.499999" height="449.999989" fill-opacity="1"/><path fill="#413757" d="M 168.148438 342.550781 C 168.148438 342.550781 186.21875 317.492188 140.101562 288.285156 C 140.101562 288.285156 119.0625 302.679688 115.609375 315.082031 C 112.628906 325.808594 126.6875 350.066406 141.382812 351.03125 C 156.078125 352.007812 168.148438 342.550781 168.148438 342.550781 Z M 168.148438 342.550781 " fill-opacity="1" fill-rule="nonzero"/><path fill="#ffffff" d="M 127.753906 343.921875 C 130.925781 346.234375 134.328125 347.742188 137.765625 347.957031 C 152.460938 348.921875 164.53125 339.464844 164.53125 339.464844 C 164.53125 339.464844 178.222656 320.476562 151.347656 296.292969 C 183.019531 321.921875 168.148438 342.550781 168.148438 342.550781 C 168.148438 342.550781 156.078125 352.007812 141.382812 351.042969 C 136.585938 350.726562 131.855469 347.921875 127.753906 343.921875 Z M 127.753906 343.921875 " fill-opacity="0.6" fill-rule="nonzero"/><path fill="#000000" d="M 143.527344 353.203125 C 142.78125 353.203125 142.019531 353.175781 141.246094 353.125 C 134.351562 352.667969 126.980469 347.601562 121.027344 339.199219 C 114.886719 330.53125 111.890625 320.617188 113.59375 314.523438 C 117.207031 301.535156 138.035156 287.167969 138.921875 286.558594 L 140.050781 285.78125 L 141.21875 286.519531 C 159.886719 298.335938 170.636719 310.980469 173.160156 324.09375 C 175.433594 335.847656 170.0625 343.453125 169.835938 343.769531 L 169.65625 344.011719 L 169.429688 344.1875 C 168.945312 344.582031 157.765625 353.203125 143.527344 353.203125 Z M 140.164062 290.808594 C 135.851562 293.945312 120.394531 305.710938 117.613281 315.652344 C 116.28125 320.4375 119.152344 329.335938 124.441406 336.789062 C 129.582031 344.035156 135.964844 348.59375 141.523438 348.960938 C 154.085938 349.785156 164.847656 342.386719 166.613281 341.089844 C 167.425781 339.808594 170.824219 333.765625 169.046875 324.765625 C 166.777344 313.304688 156.800781 301.585938 140.164062 290.808594 Z M 140.164062 290.808594 " fill-opacity="1" fill-rule="nonzero"/><path fill="#371a45" d="M 143.527344 353.203125 C 142.78125 353.203125 142.019531 353.175781 141.246094 353.125 C 134.351562 352.667969 126.980469 347.601562 121.027344 339.199219 C 114.886719 330.53125 111.890625 320.617188 113.59375 314.523438 C 117.207031 301.535156 138.035156 287.167969 138.921875 286.558594 C 139.605469 286.085938 140.519531 286.074219 141.21875 286.519531 C 159.886719 298.335938 170.636719 310.980469 173.160156 324.09375 C 175.433594 335.847656 170.0625 343.453125 169.835938 343.769531 C 169.722656 343.933594 169.582031 344.074219 169.429688 344.1875 C 168.945312 344.582031 157.765625 353.203125 143.527344 353.203125 Z M 140.164062 290.808594 C 135.851562 293.945312 120.394531 305.710938 117.613281 315.652344 C 116.28125 320.4375 119.152344 329.335938 124.441406 336.789062 C 129.582031 344.035156 135.964844 348.59375 141.523438 348.960938 C 154.085938 349.785156 164.847656 342.386719 166.613281 341.089844 C 167.425781 339.808594 170.824219 333.765625 169.046875 324.765625 C 166.777344 313.304688 156.800781 301.585938 140.164062 290.808594 Z M 168.148438 342.550781 Z M 168.148438 342.550781 Z M 168.148438 342.550781 " fill-opacity="1" fill-rule="nonzero"/><path fill="#371a45" d="M 125.839844 342.15625 C 118.402344 333.867188 113.605469 321.886719 115.46875 315.195312 C 118.933594 302.792969 139.960938 288.398438 139.960938 288.398438 C 144.671875 291.382812 148.695312 294.3125 152.144531 297.183594 C 151.816406 296.980469 151.484375 296.777344 151.144531 296.558594 C 151.144531 296.558594 128.109375 312.59375 123.71875 325.769531 C 122.308594 330.007812 123.273438 336.140625 125.839844 342.15625 Z M 125.839844 342.15625 " fill-opacity="0.4" fill-rule="nonzero"/><path fill="#ea7344" d="M 120.128906 219.0625 C 113.859375 218.53125 99.0625 213.148438 95.039062 221.003906 C 91.015625 228.863281 73.898438 292.347656 100.078125 305.371094 C 126.257812 318.394531 155.433594 297.320312 155.433594 297.320312 C 155.433594 297.320312 162.730469 222.707031 120.128906 219.0625 Z M 120.128906 219.0625 " fill-opacity="1" fill-rule="nonzero"/><path fill="#ffffff" d="M 139.746094 228.214844 C 135.519531 225.207031 130.433594 223.226562 124.328125 222.707031 C 118.058594 222.171875 103.261719 216.789062 99.238281 224.648438 C 95.585938 231.769531 81.195312 284.550781 97.996094 304.089844 C 74.339844 289.148438 90.789062 228.378906 94.710938 220.710938 C 98.730469 212.855469 113.527344 218.238281 119.796875 218.785156 C 128.273438 219.492188 134.773438 223.023438 139.746094 228.214844 Z M 139.746094 228.214844 " fill-opacity="0.6" fill-rule="nonzero"/><path fill="#371a45" d="M 155.417969 297.335938 C 155.417969 297.335938 126.246094 318.417969 100.0625 305.394531 C 87.425781 299.113281 84.875 281.0625 86.078125 263.199219 C 87.058594 275.539062 90.925781 286.238281 100.0625 290.785156 C 126.246094 303.808594 155.417969 282.738281 155.417969 282.738281 C 155.417969 282.738281 155.597656 280.933594 155.738281 277.863281 C 156.230469 289.03125 155.417969 297.335938 155.417969 297.335938 Z M 155.417969 297.335938 " fill-opacity="0.4" fill-rule="nonzero"/><path fill="#371a45" d="M 118.78125 311.742188 C 112.386719 311.742188 105.6875 310.5 99.125 307.234375 C 93.273438 304.328125 89.023438 298.945312 86.5 291.265625 C 78.59375 267.210938 89.542969 227.125 93.171875 220.039062 C 97.019531 212.523438 107.589844 214.605469 115.316406 216.128906 C 117.222656 216.511719 119.035156 216.867188 120.304688 216.96875 C 129.59375 217.753906 137.347656 221.816406 143.351562 229.039062 C 161.800781 251.214844 157.679688 295.621094 157.5 297.511719 C 157.4375 298.109375 157.132812 298.65625 156.648438 298.996094 C 155.699219 299.683594 138.707031 311.742188 118.78125 311.742188 Z M 104.175781 218.859375 C 100.890625 218.859375 98.097656 219.609375 96.890625 221.957031 C 93.542969 228.496094 83.058594 267.441406 90.46875 289.960938 C 92.640625 296.535156 96.179688 301.09375 100.992188 303.492188 C 123.414062 314.648438 148.695312 299.25 153.414062 296.140625 C 153.910156 289.539062 156.042969 250.824219 140.128906 231.71875 C 134.875 225.398438 128.085938 221.84375 119.9375 221.144531 C 118.425781 221.015625 116.613281 220.660156 114.492188 220.242188 C 111.296875 219.609375 107.488281 218.859375 104.175781 218.859375 Z M 155.417969 297.308594 Z M 155.417969 297.308594 " fill-opacity="1" fill-rule="nonzero"/><path fill="#1297e0" d="M 82.121094 277.0625 C 82.121094 277.0625 93.019531 271.808594 103.425781 274.15625 C 103.425781 274.15625 105.230469 291.941406 107.933594 298.820312 C 107.933594 298.820312 96.21875 302.84375 91.015625 303.007812 C 85.8125 303.175781 81.28125 283.828125 82.121094 277.0625 Z M 82.121094 277.0625 " fill-opacity="1" fill-rule="nonzero"/><path fill="#ffffff" d="M 85.914062 280.183594 C 85.292969 285.261719 87.679688 297.4375 91.117188 303.125 C 91.078125 303.125 91.042969 303.125 91.003906 303.125 C 85.800781 303.289062 81.28125 283.929688 82.121094 277.164062 C 82.121094 277.164062 93.019531 271.910156 103.414062 274.257812 C 103.414062 274.257812 103.503906 275.207031 103.695312 276.757812 C 94.492188 276.058594 85.914062 280.183594 85.914062 280.183594 Z M 85.914062 280.183594 " fill-opacity="0.6" fill-rule="nonzero"/><path fill="#371a45" d="M 108.019531 298.820312 C 108.019531 298.820312 96.308594 302.84375 91.105469 303.023438 C 89.761719 303.058594 88.464844 301.804688 87.296875 299.796875 C 93.007812 298.945312 102.132812 295.8125 102.132812 295.8125 C 100.039062 290.492188 98.492188 278.660156 97.90625 273.558594 C 99.746094 273.558594 101.652344 273.734375 103.527344 274.15625 C 103.515625 274.15625 105.316406 291.941406 108.019531 298.820312 Z M 108.019531 298.820312 " fill-opacity="0.4" fill-rule="nonzero"/><path fill="#371a45" d="M 90.941406 305.101562 C 89.542969 305.101562 88.222656 304.429688 87.007812 303.097656 C 82.449219 298.109375 79.289062 282.839844 80.039062 276.796875 C 80.128906 276.085938 80.570312 275.476562 81.207031 275.171875 C 81.675781 274.941406 92.894531 269.636719 103.871094 272.113281 C 104.746094 272.316406 105.394531 273.050781 105.496094 273.9375 C 105.507812 274.117188 107.296875 291.519531 109.875 298.046875 C 110.078125 298.578125 110.0625 299.175781 109.824219 299.683594 C 109.582031 300.203125 109.136719 300.597656 108.605469 300.789062 C 108.109375 300.953125 96.523438 304.914062 91.078125 305.089844 C 91.027344 305.101562 90.976562 305.101562 90.941406 305.101562 Z M 84.101562 278.484375 C 83.910156 284.511719 86.789062 296.523438 90.015625 300.203125 C 90.546875 300.800781 90.875 300.925781 90.941406 300.925781 C 94.289062 300.8125 101.230469 298.792969 105.265625 297.5 C 103.3125 290.988281 101.96875 279.996094 101.5 275.917969 C 94.226562 274.800781 86.816406 277.378906 84.101562 278.484375 Z M 84.101562 278.484375 " fill-opacity="1" fill-rule="nonzero"/><path fill="#413757" d="M 364.402344 134.238281 C 364.402344 134.238281 355.011719 155.046875 342.257812 172.246094 C 329.515625 189.445312 315.761719 178.429688 315.761719 178.429688 C 279.53125 241.746094 242.296875 231.539062 235.191406 220.597656 C 232.449219 216.398438 230.785156 209.832031 230.621094 203.167969 C 230.558594 200.667969 230.710938 198.140625 231.089844 195.730469 C 232.324219 187.871094 236.027344 181.105469 242.96875 179.53125 C 257.726562 176.167969 272.488281 164.425781 275.507812 154.816406 C 278.527344 145.207031 286.574219 136.246094 286.574219 136.246094 L 277.183594 120.136719 C 277.207031 119.261719 277.269531 118.359375 277.386719 117.457031 C 278.386719 109.15625 282.816406 99.625 288.058594 90.828125 C 297.398438 75.136719 309.378906 61.757812 309.378906 61.757812 L 317.4375 71.960938 C 320.113281 67.75 326.152344 74.160156 326.152344 74.160156 L 330.175781 68.445312 Z M 364.402344 134.238281 " fill-opacity="1" fill-rule="nonzero"/><path fill="#ffffff" d="M 299.65625 127.320312 C 299.65625 127.320312 293.324219 130.839844 290.976562 139.203125 C 289.277344 145.269531 286.027344 145.929688 283.273438 151.226562 C 279.492188 158.5 279.226562 166.382812 272.167969 171.382812 C 267.765625 174.519531 250.597656 185.613281 231.078125 195.742188 C 232.308594 187.886719 236.015625 181.121094 242.957031 179.546875 C 257.714844 176.183594 272.472656 164.441406 275.496094 154.832031 C 278.515625 145.21875 284.757812 141.347656 286.558594 136.257812 C 290.851562 124.210938 299.65625 127.320312 299.65625 127.320312 Z M 299.65625 127.320312 " fill-opacity="0.6" fill-rule="nonzero"/><path fill="#371a45" d="M 364.402344 134.238281 C 364.402344 134.238281 355.011719 155.046875 342.257812 172.246094 C 329.515625 189.445312 315.761719 178.429688 315.761719 178.429688 C 279.53125 241.746094 242.296875 231.539062 235.191406 220.597656 C 232.449219 216.398438 230.785156 209.832031 230.621094 203.167969 C 262.753906 223.796875 308.132812 178.414062 308.132812 178.414062 L 303.261719 171.371094 L 297.511719 171.371094 C 304.9375 151.707031 294.464844 111.59375 288.070312 90.8125 C 297.410156 75.125 309.390625 61.742188 309.390625 61.742188 L 317.449219 71.949219 C 320.125 67.734375 326.167969 74.144531 326.167969 74.144531 L 330.191406 68.433594 Z M 364.402344 134.238281 " fill-opacity="0.4" fill-rule="nonzero"/><path fill="#5f77e6" d="M 325.671875 180.917969 C 319.871094 180.738281 315.761719 177.449219 315.761719 177.449219 C 306.117188 167.867188 305.277344 155.070312 305.277344 155.070312 C 308.550781 142.1875 303.261719 128.148438 297.5 125.925781 C 291.738281 123.703125 286.574219 135.269531 286.574219 135.269531 L 277.183594 119.160156 C 277.855469 96.003906 311.6875 59.761719 311.6875 59.761719 L 317.4375 70.996094 C 317.4375 70.996094 341.304688 119.628906 346.179688 133.832031 C 346.179688 133.832031 314.378906 174.796875 325.671875 180.917969 Z M 325.671875 180.917969 " fill-opacity="1" fill-rule="nonzero"/><path fill="#371a45" d="M 325.671875 180.929688 C 321.710938 180.816406 318.539062 179.242188 316.929688 178.25 C 314.617188 170.660156 326.34375 152.316406 333.78125 141.730469 C 337.4375 136.539062 338.132812 129.824219 335.621094 123.996094 C 327.234375 104.484375 310.8125 71.011719 310.8125 71.011719 L 307.488281 64.511719 C 310.039062 61.527344 311.675781 59.777344 311.675781 59.777344 L 317.4375 71.011719 C 317.4375 71.011719 341.292969 119.640625 346.179688 133.847656 C 346.179688 133.832031 314.378906 174.796875 325.671875 180.929688 Z M 325.671875 180.929688 " fill-opacity="0.3" fill-rule="nonzero"/><path fill="#ffffff" d="M 294.3125 88.898438 C 295.40625 89.847656 294.949219 92.449219 293.234375 94.800781 C 291.941406 96.578125 290.292969 97.71875 289.023438 97.847656 C 285.355469 104.5625 282.449219 111.277344 281.179688 117.21875 L 289.492188 129.960938 C 287.5625 132.527344 286.332031 135.28125 286.332031 135.28125 L 276.941406 119.171875 C 277.613281 96.019531 311.445312 59.777344 311.445312 59.777344 L 312.90625 63.75 C 308.199219 69.195312 300.835938 78.601562 294.3125 88.898438 Z M 294.3125 88.898438 " fill-opacity="0.6" fill-rule="nonzero"/><path fill="#371a45" d="M 325.40625 180.917969 C 319.605469 180.738281 315.507812 177.449219 315.507812 177.449219 C 305.863281 167.867188 305.023438 155.070312 305.023438 155.070312 C 307.691406 144.574219 304.667969 133.300781 300.355469 128.285156 C 301.660156 127.488281 303.097656 127.15625 304.566406 127.714844 C 310.328125 129.9375 315.609375 143.988281 312.347656 156.859375 C 312.347656 156.859375 313.183594 169.667969 322.828125 179.242188 C 322.828125 179.242188 323.539062 179.800781 324.769531 180.472656 C 324.960938 180.648438 325.175781 180.789062 325.40625 180.917969 Z M 325.40625 180.917969 " fill-opacity="0.2" fill-rule="nonzero"/><path fill="#ffffff" d="M 357.359375 133.441406 L 325.683594 180.929688 L 325.671875 180.929688 C 314.378906 174.796875 346.191406 133.847656 346.191406 133.847656 C 341.304688 119.65625 317.449219 71.011719 317.449219 71.011719 C 320.140625 66.796875 326.179688 73.207031 326.179688 73.207031 Z M 357.359375 133.441406 " fill-opacity="1" fill-rule="nonzero"/><path fill="#5f77e6" d="M 364.402344 133.261719 C 364.402344 133.261719 355.011719 154.070312 342.257812 171.269531 C 336.472656 179.0625 330.496094 181.070312 325.671875 180.917969 L 357.347656 133.429688 L 326.152344 73.207031 L 330.175781 67.507812 Z M 364.402344 133.261719 " fill-opacity="1" fill-rule="nonzero"/><g clip-path="url(#96c3bf7f90)"><path fill="#371a45" d="M 254.46875 230.855469 C 244.035156 230.855469 236.421875 226.347656 233.4375 221.742188 C 228.082031 213.488281 226.929688 198.179688 230.925781 188.316406 C 233.324219 182.414062 237.324219 178.667969 242.5 177.488281 C 257.539062 174.074219 270.914062 162.472656 273.515625 154.195312 C 276.027344 146.222656 281.710938 138.808594 284.023438 136.015625 L 275.378906 121.191406 C 275.175781 120.847656 275.089844 120.46875 275.101562 120.074219 C 275.785156 96.425781 308.742188 59.902344 310.140625 58.355469 C 310.609375 57.835938 311.304688 57.59375 311.992188 57.695312 C 312.675781 57.796875 313.273438 58.242188 313.578125 58.875 L 318.222656 68.726562 C 318.640625 68.574219 319.058594 68.496094 319.414062 68.460938 C 321.777344 68.242188 324.199219 69.714844 325.824219 71.023438 L 328.488281 67.253906 C 328.90625 66.65625 329.605469 66.328125 330.34375 66.378906 C 331.066406 66.429688 331.710938 66.847656 332.054688 67.496094 L 366.269531 133.261719 C 366.558594 133.832031 366.585938 134.507812 366.320312 135.089844 C 366.230469 135.304688 356.6875 156.300781 343.957031 173.476562 C 339.414062 179.609375 334.199219 183.085938 328.464844 183.835938 C 323.234375 184.507812 318.894531 182.707031 316.484375 181.359375 C 291.761719 223.542969 267.742188 230.488281 255.507812 230.828125 C 255.152344 230.84375 254.808594 230.855469 254.46875 230.855469 Z M 279.300781 119.617188 L 288.386719 135.191406 C 288.84375 135.980469 288.742188 136.96875 288.132812 137.640625 C 288.058594 137.730469 280.34375 146.402344 277.5 155.453125 C 274.125 166.179688 258.527344 178.136719 243.425781 181.578125 C 239.582031 182.453125 236.6875 185.246094 234.796875 189.902344 C 230.925781 199.4375 232.816406 213.132812 236.941406 219.46875 C 239.316406 223.113281 246.078125 226.921875 255.378906 226.667969 C 266.917969 226.335938 289.859375 219.507812 313.945312 177.398438 C 314.25 176.867188 314.769531 176.5 315.367188 176.386719 C 315.964844 176.269531 316.585938 176.421875 317.066406 176.804688 C 317.105469 176.839844 321.863281 180.511719 327.957031 179.699219 C 332.511719 179.089844 336.75 176.167969 340.582031 171.003906 C 351.558594 156.199219 360.113281 138.480469 362.066406 134.289062 L 329.910156 72.46875 L 327.867188 75.378906 C 327.511719 75.886719 326.929688 76.214844 326.304688 76.253906 C 325.683594 76.304688 325.0625 76.0625 324.644531 75.605469 C 323.398438 74.285156 321.015625 72.519531 319.808594 72.636719 C 319.683594 72.648438 319.480469 72.660156 319.210938 73.09375 C 318.804688 73.738281 318.082031 74.109375 317.320312 74.058594 C 316.558594 74.007812 315.886719 73.550781 315.558594 72.863281 L 311.167969 63.546875 C 303.933594 71.9375 280.316406 100.753906 279.300781 119.617188 Z M 279.300781 119.617188 " fill-opacity="1" fill-rule="nonzero"/></g><path fill="#371a45" d="M 315.761719 180.511719 C 315.226562 180.511719 314.695312 180.308594 314.289062 179.902344 C 304.199219 169.871094 303.234375 156.734375 303.199219 156.175781 C 303.183594 155.960938 303.199219 155.730469 303.261719 155.527344 C 306.292969 143.582031 301.421875 130.648438 296.761719 128.84375 C 293.84375 127.714844 289.859375 134.035156 288.488281 137.097656 C 288.019531 138.148438 286.777344 138.621094 285.722656 138.148438 C 284.667969 137.679688 284.199219 136.449219 284.667969 135.394531 C 285.277344 134.023438 290.851562 122.105469 298.25 124.949219 C 305.191406 127.625 310.710938 142.503906 307.386719 156.199219 C 307.589844 158.117188 309.074219 168.84375 317.234375 176.941406 C 318.058594 177.753906 318.058594 179.074219 317.246094 179.902344 C 316.839844 180.308594 316.292969 180.511719 315.761719 180.511719 Z M 315.761719 180.511719 " fill-opacity="1" fill-rule="nonzero"/><path fill="#371a45" d="M 325.671875 183.988281 C 325.34375 183.988281 325 183.914062 324.683594 183.734375 C 322.945312 182.796875 321.800781 181.207031 321.355469 179.140625 C 318.972656 167.816406 339.175781 140.535156 343.832031 134.429688 C 338.3125 119.300781 315.800781 73.371094 315.558594 72.890625 C 315.050781 71.847656 315.480469 70.605469 316.507812 70.097656 C 317.550781 69.589844 318.792969 70.019531 319.300781 71.046875 C 320.277344 73.042969 343.273438 119.960938 348.144531 134.113281 C 348.375 134.785156 348.246094 135.523438 347.816406 136.082031 C 340.976562 144.890625 323.617188 169.65625 325.429688 178.261719 C 325.671875 179.394531 326.203125 179.8125 326.648438 180.039062 C 327.664062 180.585938 328.046875 181.855469 327.5 182.871094 C 327.132812 183.582031 326.40625 183.988281 325.671875 183.988281 Z M 325.671875 183.988281 " fill-opacity="1" fill-rule="nonzero"/><path fill="#371a45" d="M 325.671875 183.988281 C 325.277344 183.988281 324.871094 183.875 324.515625 183.632812 C 323.550781 183 323.296875 181.691406 323.933594 180.738281 L 354.9375 134.277344 L 324.300781 75.136719 C 323.769531 74.109375 324.175781 72.851562 325.191406 72.316406 C 326.21875 71.785156 327.472656 72.191406 328.007812 73.207031 L 359.199219 133.441406 C 359.554688 134.113281 359.503906 134.925781 359.085938 135.558594 L 327.410156 183.050781 C 327.003906 183.660156 326.34375 183.988281 325.671875 183.988281 Z M 325.671875 183.988281 " fill-opacity="1" fill-rule="nonzero"/><path fill="#413757" d="M 132.4375 245.835938 C 109.796875 298.375 34.316406 229.6875 34.316406 229.6875 L 31.980469 233.621094 L 31.296875 234.765625 C 31.296875 234.765625 27.5 237.101562 23.25 238.839844 C 19.46875 240.390625 15.320312 241.46875 13.1875 239.996094 C 10.941406 238.445312 10.292969 234.410156 10.230469 230.742188 C 10.167969 227.023438 10.675781 223.683594 10.675781 223.683594 L 12.121094 221.003906 L 19.0625 208.222656 C 17.160156 197.609375 19.914062 191.097656 23.746094 187.113281 C 29.023438 181.628906 36.332031 180.929688 36.332031 180.929688 L 38.085938 177.90625 L 48.414062 160.125 C 48.414062 160.125 52.4375 153.523438 62.007812 157.992188 C 71.5625 162.460938 68.363281 172.246094 68.363281 172.246094 L 59.988281 188.355469 C 67.90625 192.542969 70.050781 204.871094 88.847656 207.347656 C 90.671875 207.585938 92.640625 207.980469 94.695312 208.5 C 102.96875 210.609375 112.5625 214.898438 120.152344 220.421875 C 129.910156 227.53125 136.382812 236.667969 132.4375 245.835938 Z M 132.4375 245.835938 " fill-opacity="1" fill-rule="nonzero"/><path fill="#ffffff" d="M 94.683594 208.5 C 102.957031 210.609375 112.550781 214.898438 120.140625 220.421875 C 104.136719 221.523438 81.992188 217.363281 66.09375 201.023438 C 51.195312 185.714844 34.1875 185.347656 23.746094 187.125 C 29.023438 181.640625 36.332031 180.941406 36.332031 180.941406 L 38.085938 177.921875 L 48.414062 160.136719 C 48.414062 160.136719 52.4375 153.535156 62.007812 158.003906 C 71.5625 162.472656 68.363281 172.257812 68.363281 172.257812 L 59.988281 188.367188 C 67.90625 192.558594 70.050781 204.882812 88.847656 207.359375 C 90.671875 207.585938 92.640625 207.980469 94.683594 208.5 Z M 94.683594 208.5 " fill-opacity="0.6" fill-rule="nonzero"/><path fill="#371a45" d="M 132.4375 245.835938 C 109.796875 298.375 34.316406 229.6875 34.316406 229.6875 L 31.980469 233.621094 L 31.296875 234.765625 C 31.296875 234.765625 27.5 237.101562 23.25 238.839844 C 19.46875 240.390625 15.320312 241.46875 13.1875 239.996094 C 10.941406 238.445312 10.292969 234.410156 10.230469 230.742188 C 10.167969 227.023438 10.675781 223.683594 10.675781 223.683594 L 12.121094 221.003906 L 19.0625 208.222656 C 14.53125 183.011719 36.332031 180.929688 36.332031 180.929688 L 38.085938 177.90625 C 41.664062 179.660156 44.152344 180.929688 44.152344 180.929688 C 44.152344 180.929688 38.921875 198.039062 61.5625 211.039062 L 52.601562 211.039062 C 52.601562 211.039062 69.1875 259.746094 96.398438 245.898438 C 112.386719 237.761719 104.175781 220.964844 94.695312 208.5 C 113.59375 213.324219 139.453125 229.546875 132.4375 245.835938 Z M 132.4375 245.835938 " fill-opacity="0.4" fill-rule="nonzero"/><path fill="#5eb545" d="M 68.351562 171.394531 L 59.976562 187.503906 C 59.976562 187.503906 56.179688 185.753906 51.878906 185.246094 C 48.148438 184.800781 44.023438 185.320312 41.6875 188.75 C 38.898438 192.847656 40.292969 197.824219 42.082031 201.429688 C 43.515625 204.324219 45.21875 206.355469 45.21875 206.355469 L 34.304688 228.824219 L 31.96875 232.746094 C 30.394531 230.015625 28.632812 227.859375 26.789062 226.160156 C 23.960938 223.554688 20.953125 222.019531 18.125 221.15625 C 15.941406 220.484375 13.871094 220.203125 12.109375 220.140625 L 19.050781 207.359375 L 36.320312 180.066406 L 48.402344 159.261719 C 48.402344 159.261719 52.425781 152.671875 61.992188 157.128906 C 62.4375 157.332031 62.84375 157.546875 63.222656 157.773438 C 63.390625 157.863281 63.554688 157.964844 63.707031 158.066406 C 71.144531 162.851562 68.351562 171.394531 68.351562 171.394531 Z M 68.351562 171.394531 " fill-opacity="1" fill-rule="nonzero"/><path fill="#f9e7ce" d="M 31.96875 232.773438 L 31.28125 233.914062 C 31.28125 233.914062 27.488281 236.25 23.238281 237.988281 C 22.324219 235.234375 20.953125 233.34375 19.390625 232.097656 C 17.78125 230.804688 15.953125 230.167969 14.1875 229.914062 C 12.78125 229.714844 11.410156 229.75 10.203125 229.890625 C 10.140625 226.183594 10.648438 222.832031 10.648438 222.832031 L 12.09375 220.152344 C 13.871094 220.230469 15.941406 220.496094 18.109375 221.167969 C 20.929688 222.03125 23.949219 223.570312 26.777344 226.171875 C 28.644531 227.886719 30.40625 230.042969 31.96875 232.773438 Z M 31.96875 232.773438 " fill-opacity="1" fill-rule="nonzero"/><path fill="#5eb545" d="M 23.25 237.988281 C 19.875 239.375 16.195312 240.390625 13.9375 239.527344 C 13.667969 239.425781 13.414062 239.296875 13.1875 239.144531 C 11.917969 238.269531 11.167969 236.617188 10.738281 234.675781 C 10.394531 233.164062 10.253906 231.488281 10.230469 229.890625 C 11.421875 229.738281 12.804688 229.699219 14.214844 229.914062 C 15.980469 230.15625 17.792969 230.804688 19.417969 232.097656 C 20.964844 233.34375 22.335938 235.234375 23.25 237.988281 Z M 23.25 237.988281 " fill-opacity="1" fill-rule="nonzero"/><path fill="#ffffff" d="M 63.222656 157.800781 C 60.382812 157.75 56.128906 158.398438 53.71875 162.207031 C 51.359375 165.960938 37.398438 189.140625 27.058594 206.355469 C 28.351562 207.246094 28.160156 209.960938 26.636719 212.523438 C 25.101562 215.113281 22.753906 216.5625 21.371094 215.8125 C 20.128906 217.882812 19.035156 219.710938 18.148438 221.195312 C 16.550781 223.859375 15.597656 225.433594 15.597656 225.433594 C 15.597656 225.433594 14.8125 227.261719 14.214844 229.929688 C 13.605469 232.621094 13.175781 236.175781 13.949219 239.539062 C 13.683594 239.4375 13.429688 239.308594 13.199219 239.15625 C 11.929688 238.28125 11.183594 236.632812 10.75 234.6875 C 10.40625 233.179688 10.269531 231.503906 10.242188 229.902344 C 10.179688 226.195312 10.6875 222.84375 10.6875 222.84375 L 12.132812 220.167969 L 19.074219 207.382812 L 36.347656 180.089844 L 48.425781 159.285156 C 48.425781 159.285156 52.449219 152.699219 62.019531 157.152344 C 62.4375 157.355469 62.84375 157.570312 63.222656 157.800781 Z M 63.222656 157.800781 " fill-opacity="0.6" fill-rule="nonzero"/><path fill="#371a45" d="M 19.050781 210.316406 C 18.667969 210.316406 18.277344 210.214844 17.933594 209.984375 C 16.957031 209.363281 16.664062 208.082031 17.285156 207.105469 L 34.558594 179.8125 C 35.179688 178.835938 36.460938 178.542969 37.4375 179.164062 C 38.414062 179.785156 38.707031 181.070312 38.085938 182.046875 L 20.8125 209.339844 C 20.421875 209.972656 19.746094 210.316406 19.050781 210.316406 Z M 19.050781 210.316406 " fill-opacity="1" fill-rule="nonzero"/><path fill="#371a45" d="M 42.09375 201.441406 C 43.527344 204.335938 45.230469 206.367188 45.230469 206.367188 L 34.316406 228.835938 L 31.980469 232.757812 L 31.296875 233.902344 C 31.296875 233.902344 27.5 236.238281 23.25 237.976562 C 19.46875 239.539062 15.320312 240.605469 13.1875 239.132812 C 11.917969 238.257812 12.070312 239.207031 11.636719 237.265625 C 15.066406 236.886719 18.226562 235.386719 20.355469 233.789062 C 23.746094 231.234375 25.355469 227.898438 26.804688 226.171875 C 27.945312 224.8125 28.480469 223.835938 28.480469 223.835938 C 28.480469 223.835938 34.875 213.351562 42.09375 201.441406 Z M 42.09375 201.441406 " fill-opacity="0.3" fill-rule="nonzero"/><path fill="#371a45" d="M 68.351562 171.394531 L 59.976562 187.503906 C 59.976562 187.503906 56.179688 185.753906 51.878906 185.246094 C 56.371094 177.769531 60.140625 171.484375 61.550781 168.984375 C 63.769531 165.0625 64.023438 161.113281 63.707031 158.09375 C 71.144531 162.851562 68.351562 171.394531 68.351562 171.394531 Z M 68.351562 171.394531 " fill-opacity="0.3" fill-rule="nonzero"/><g clip-path="url(#2a02648087)"><path fill="#371a45" d="M 104.214844 267.71875 C 76.828125 267.71875 43.226562 240.199219 34.824219 232.925781 L 33.097656 235.832031 C 32.921875 236.125 32.679688 236.363281 32.398438 236.542969 C 32.234375 236.644531 28.414062 238.992188 24.050781 240.769531 C 18.390625 243.09375 14.441406 243.410156 12.007812 241.707031 C 9.558594 240.007812 8.25 236.328125 8.148438 230.777344 C 8.085938 226.933594 8.59375 223.503906 8.617188 223.367188 C 8.65625 223.125 8.734375 222.894531 8.847656 222.679688 L 16.890625 207.867188 C 15.523438 199.488281 16.816406 192.621094 20.726562 187.453125 C 25.382812 181.308594 32.347656 179.496094 35.039062 179.011719 L 46.613281 159.082031 C 48.363281 156.214844 53.984375 151.949219 62.894531 156.097656 C 71.777344 160.25 71.664062 168.894531 70.355469 172.894531 C 70.320312 173.007812 70.28125 173.109375 70.230469 173.210938 L 62.742188 187.605469 C 64.898438 189.15625 66.652344 191.1875 68.492188 193.320312 C 72.703125 198.207031 77.464844 203.742188 89.125 205.277344 C 104.136719 207.257812 125.875 218.289062 133.058594 230.957031 C 136.105469 236.328125 136.550781 241.621094 134.367188 246.671875 C 129.503906 257.945312 121.90625 264.761719 111.765625 266.957031 C 109.316406 267.476562 106.789062 267.71875 104.214844 267.71875 Z M 34.316406 227.59375 C 34.835938 227.59375 35.332031 227.785156 35.726562 228.140625 C 36.179688 228.546875 81.347656 269.242188 110.875 262.855469 C 119.621094 260.964844 126.21875 254.960938 130.519531 245.007812 C 132.15625 241.214844 131.777344 237.191406 129.417969 233.011719 C 122.832031 221.410156 102.601562 211.269531 88.566406 209.414062 C 75.332031 207.675781 69.773438 201.226562 65.304688 196.046875 C 63.171875 193.574219 61.332031 191.425781 59.011719 190.207031 C 57.996094 189.675781 57.601562 188.417969 58.136719 187.390625 L 66.421875 171.445312 C 66.804688 170.140625 68.375 163.273438 61.117188 159.882812 C 53.679688 156.417969 50.585938 160.617188 50.203125 161.214844 L 38.148438 181.984375 C 37.804688 182.566406 37.210938 182.949219 36.535156 183.011719 C 36.460938 183.023438 28.644531 183.875 24.023438 190.003906 C 20.75 194.347656 19.773438 200.351562 21.117188 207.855469 C 21.207031 208.324219 21.132812 208.804688 20.902344 209.222656 L 12.691406 224.34375 C 12.578125 225.269531 12.273438 227.886719 12.324219 230.703125 C 12.398438 234.601562 13.175781 237.429688 14.378906 238.269531 C 15.230469 238.867188 17.804688 238.816406 22.464844 236.898438 C 25.699219 235.578125 28.695312 233.875 29.773438 233.230469 L 32.527344 228.609375 C 32.84375 228.074219 33.390625 227.707031 34.011719 227.605469 C 34.113281 227.605469 34.214844 227.59375 34.316406 227.59375 Z M 132.4375 245.835938 Z M 132.4375 245.835938 " fill-opacity="1" fill-rule="nonzero"/></g><g clip-path="url(#ee17dac5f1)"><path fill="#371a45" d="M 15.914062 242.789062 C 14.328125 242.789062 13.035156 242.433594 12.007812 241.722656 C 9.558594 240.019531 8.25 236.339844 8.148438 230.792969 C 8.085938 226.945312 8.59375 223.519531 8.617188 223.378906 C 8.65625 223.136719 8.734375 222.910156 8.847656 222.691406 L 10.304688 220.015625 C 10.6875 219.316406 11.4375 218.898438 12.222656 218.921875 C 17.464844 219.125 27.234375 221.183594 33.808594 232.570312 C 34.1875 233.230469 34.175781 234.027344 33.796875 234.675781 L 33.109375 235.820312 C 32.933594 236.109375 32.691406 236.351562 32.414062 236.53125 C 32.246094 236.632812 28.429688 238.980469 24.0625 240.757812 C 20.777344 242.113281 18.074219 242.789062 15.914062 242.789062 Z M 12.679688 224.34375 C 12.566406 225.269531 12.261719 227.886719 12.3125 230.703125 C 12.386719 234.601562 13.160156 237.429688 14.367188 238.269531 C 15.21875 238.851562 17.792969 238.816406 22.449219 236.898438 C 25.382812 235.691406 28.125 234.179688 29.417969 233.433594 C 24.609375 225.941406 18.261719 223.65625 13.3125 223.175781 Z M 12.679688 224.34375 " fill-opacity="1" fill-rule="nonzero"/></g><g clip-path="url(#836dae6747)"><path fill="#371a45" d="M 15.902344 242.789062 C 14.316406 242.789062 13.023438 242.433594 11.992188 241.722656 C 9.542969 240.019531 8.238281 236.339844 8.136719 230.792969 C 8.109375 229.726562 8.910156 228.8125 9.976562 228.671875 C 17.347656 227.769531 22.921875 231.234375 25.242188 238.179688 C 25.585938 239.222656 25.078125 240.363281 24.050781 240.769531 C 20.777344 242.113281 18.074219 242.789062 15.902344 242.789062 Z M 12.425781 232.695312 C 12.691406 235.550781 13.378906 237.582031 14.378906 238.269531 C 15.101562 238.777344 17.070312 238.816406 20.507812 237.632812 C 18.859375 234.398438 16.144531 232.746094 12.425781 232.695312 Z M 12.425781 232.695312 " fill-opacity="1" fill-rule="nonzero"/></g><path fill="#371a45" d="M 34.316406 231.78125 C 34.011719 231.78125 33.695312 231.71875 33.402344 231.566406 C 32.363281 231.058594 31.929688 229.8125 32.4375 228.773438 L 42.78125 207.460938 C 40.558594 204.386719 35.117188 195.554688 39.976562 188.417969 C 45.941406 179.671875 60.253906 186.171875 60.863281 186.453125 C 61.917969 186.933594 62.363281 188.175781 61.878906 189.230469 C 61.398438 190.273438 60.152344 190.730469 59.113281 190.246094 C 58.984375 190.195312 47.335938 185.042969 43.429688 190.78125 C 39.355469 196.757812 46.753906 205.785156 46.828125 205.886719 C 47.347656 206.519531 47.464844 207.398438 47.109375 208.132812 L 36.207031 230.601562 C 35.839844 231.351562 35.089844 231.78125 34.316406 231.78125 Z M 34.316406 231.78125 " fill-opacity="1" fill-rule="nonzero"/><path fill="#fffdff" d="M 280.367188 252.320312 C 280.367188 255 280.242188 257.652344 280 260.28125 C 279.707031 263.402344 279.25 266.488281 278.640625 269.523438 C 270.648438 309.027344 235.863281 340.609375 194.148438 343.273438 C 166.867188 345.027344 142.527344 334.035156 126.726562 315.4375 C 125.890625 314.445312 125.078125 313.445312 124.277344 312.414062 C 121.675781 309.027344 119.339844 305.40625 117.308594 301.585938 C 117.042969 301.078125 116.777344 300.585938 116.523438 300.078125 C 116.003906 299.0625 115.519531 298.03125 115.050781 296.980469 C 113.898438 294.441406 112.882812 291.824219 111.992188 289.148438 C 111.511719 287.6875 111.078125 286.214844 110.671875 284.714844 C 108.871094 277.964844 107.917969 270.816406 107.917969 263.390625 C 107.917969 261.996094 107.957031 260.609375 108.019531 259.226562 C 108.425781 250.9375 110 242.875 112.613281 235.222656 C 115.0625 228.011719 118.425781 221.167969 122.550781 214.824219 C 123.441406 213.464844 124.355469 212.132812 125.304688 210.824219 C 126.433594 209.289062 127.589844 207.777344 128.808594 206.304688 C 130.648438 204.082031 132.589844 201.925781 134.621094 199.882812 C 135.152344 199.347656 135.6875 198.816406 136.21875 198.292969 C 137.09375 197.457031 137.96875 196.632812 138.882812 195.832031 C 153.847656 182.476562 173.121094 173.78125 194.136719 172.4375 C 207.5 171.574219 220.140625 173.769531 231.421875 178.429688 C 233.300781 179.203125 235.140625 180.039062 236.929688 180.941406 C 244.402344 184.699219 251.167969 189.574219 257.003906 195.375 C 257.980469 196.339844 258.933594 197.332031 259.847656 198.359375 C 263.234375 202.089844 266.269531 206.140625 268.894531 210.492188 C 273.742188 218.515625 277.207031 227.53125 278.984375 237.226562 C 279.503906 240.070312 279.886719 242.964844 280.101562 245.910156 C 280.292969 248.003906 280.367188 250.152344 280.367188 252.320312 Z M 280.367188 252.320312 " fill-opacity="1" fill-rule="nonzero"/><path fill="#371a45" d="M 280.367188 252.320312 C 280.367188 255 280.242188 257.652344 280 260.28125 C 275.953125 304 239.0625 340.40625 194.148438 343.289062 C 160.636719 345.445312 131.574219 328.359375 117.308594 301.601562 C 115.203125 297.652344 113.425781 293.5 111.992188 289.160156 C 111.511719 287.699219 111.078125 286.226562 110.671875 284.730469 C 129.925781 305.523438 164.339844 327.738281 207.816406 317.390625 C 251.445312 307.007812 271.902344 267.808594 280.113281 245.910156 C 280.292969 248.003906 280.367188 250.152344 280.367188 252.320312 Z M 280.367188 252.320312 " fill-opacity="0.3" fill-rule="nonzero"/><path fill="#413757" d="M 268.921875 210.480469 C 233.453125 284.425781 132.296875 265.078125 108.035156 259.226562 C 108.808594 243.128906 114.0625 227.910156 122.578125 214.824219 C 126.484375 208.816406 131.078125 203.257812 136.257812 198.28125 C 151.5625 183.542969 171.878906 173.859375 194.164062 172.425781 C 209.746094 171.421875 224.351562 174.582031 236.96875 180.929688 C 244.429688 184.6875 251.207031 189.5625 257.042969 195.375 C 261.585938 199.882812 265.570312 204.945312 268.921875 210.480469 Z M 268.921875 210.480469 " fill-opacity="1" fill-rule="nonzero"/><path fill="#371a45" d="M 188.464844 345.558594 C 157.410156 345.558594 129.796875 329.449219 115.46875 302.578125 C 113.300781 298.515625 111.472656 294.222656 110.011719 289.808594 C 107.234375 281.378906 105.839844 272.492188 105.839844 263.390625 C 105.839844 262.007812 105.875 260.574219 105.941406 259.125 C 106.714844 243.167969 111.855469 227.453125 120.8125 213.679688 C 124.796875 207.550781 129.492188 201.863281 134.796875 196.773438 C 151.027344 181.132812 172.054688 171.75 194.023438 170.34375 C 209.429688 169.351562 224.59375 172.375 237.894531 179.0625 C 245.546875 182.910156 252.472656 187.898438 258.503906 193.890625 C 263.183594 198.535156 267.296875 203.753906 270.710938 209.402344 C 275.785156 217.820312 279.277344 227.046875 281.066406 236.835938 C 281.992188 241.875 282.460938 247.089844 282.460938 252.320312 C 282.460938 255.011719 282.335938 257.765625 282.082031 260.472656 C 280.074219 282.203125 270.050781 302.84375 253.859375 318.597656 C 237.5625 334.441406 216.410156 343.949219 194.277344 345.371094 C 192.335938 345.496094 190.394531 345.558594 188.464844 345.558594 Z M 199.746094 174.328125 C 197.933594 174.328125 196.117188 174.390625 194.289062 174.507812 C 173.3125 175.851562 153.210938 184.828125 137.691406 199.78125 C 132.628906 204.65625 128.121094 210.085938 124.316406 215.953125 C 115.761719 229.105469 110.851562 244.09375 110.113281 259.316406 C 110.050781 260.6875 110.011719 262.058594 110.011719 263.378906 C 110.011719 272.035156 111.347656 280.488281 113.984375 288.488281 C 115.367188 292.664062 117.105469 296.738281 119.164062 300.597656 C 132.753906 326.085938 158.972656 341.359375 188.476562 341.359375 C 190.316406 341.359375 192.15625 341.292969 194.023438 341.179688 C 237.84375 338.363281 273.910156 303.492188 277.929688 260.066406 C 278.171875 257.476562 278.285156 254.859375 278.285156 252.296875 C 278.285156 247.320312 277.84375 242.367188 276.953125 237.570312 C 275.253906 228.277344 271.941406 219.519531 267.132812 211.535156 C 263.894531 206.179688 260 201.226562 255.570312 196.835938 C 249.847656 191.160156 243.273438 186.425781 236.015625 182.78125 C 224.949219 177.222656 212.511719 174.328125 199.746094 174.328125 Z M 199.746094 174.328125 " fill-opacity="1" fill-rule="nonzero"/><path fill="#371a45" d="M 280.367188 252.320312 C 280.367188 255 280.242188 257.652344 280 260.28125 C 279.707031 263.402344 279.25 266.488281 278.640625 269.523438 C 243.84375 253.550781 233.996094 199.679688 231.433594 178.414062 C 233.3125 179.191406 235.152344 180.027344 236.941406 180.929688 C 244.417969 184.6875 251.179688 189.5625 257.019531 195.363281 C 257.996094 196.328125 258.945312 197.316406 259.859375 198.34375 C 263.25 202.078125 266.28125 206.128906 268.910156 210.480469 C 273.757812 218.503906 277.21875 227.515625 278.996094 237.214844 C 279.515625 240.058594 279.898438 242.953125 280.113281 245.898438 C 280.292969 248.003906 280.367188 250.152344 280.367188 252.320312 Z M 280.367188 252.320312 " fill-opacity="0.2" fill-rule="nonzero"/><path fill="#ea7344" d="M 280.367188 252.320312 C 280.367188 255 280.242188 257.652344 280 260.28125 C 257.675781 249.847656 236.96875 203.867188 236.941406 180.929688 C 244.402344 184.6875 251.179688 189.5625 257.019531 195.375 C 260.976562 214.554688 272.269531 229.625 278.996094 237.214844 C 279.898438 242.089844 280.367188 247.128906 280.367188 252.320312 Z M 280.367188 252.320312 " fill-opacity="1" fill-rule="nonzero"/><path fill="#ffffff" d="M 279.53125 237.886719 C 264.683594 231.691406 252.96875 203.996094 252.398438 191.121094 C 254.695312 192.9375 255.699219 194.21875 257.765625 196.289062 C 261.6875 215.265625 272.792969 230.21875 279.53125 237.886719 Z M 279.53125 237.886719 " fill-opacity="0.6" fill-rule="nonzero"/><path fill="#371a45" d="M 280.367188 252.320312 C 280.367188 255 280.242188 257.652344 280 260.28125 C 257.753906 249.871094 237.105469 204.183594 236.953125 181.171875 C 236.953125 181.082031 236.953125 181.003906 236.953125 180.929688 C 237.082031 180.992188 237.222656 181.070312 237.347656 181.132812 C 239.429688 182.199219 241.445312 183.339844 243.414062 184.574219 C 246.140625 196.035156 256.269531 231.109375 279.261719 238.675781 C 279.988281 243.09375 280.367188 247.648438 280.367188 252.320312 Z M 280.367188 252.320312 " fill-opacity="0.3" fill-rule="nonzero"/><path fill="#371a45" d="M 280 262.375 C 279.695312 262.375 279.390625 262.3125 279.113281 262.171875 C 256.320312 251.507812 234.859375 207.359375 234.859375 180.929688 C 234.859375 180.207031 235.242188 179.53125 235.851562 179.152344 C 236.472656 178.769531 237.234375 178.734375 237.878906 179.0625 C 245.53125 182.910156 252.460938 187.898438 258.488281 193.890625 C 258.78125 194.183594 258.984375 194.550781 259.0625 194.957031 C 262.957031 213.78125 274.199219 228.648438 280.558594 235.832031 C 280.8125 236.109375 280.976562 236.464844 281.054688 236.835938 C 281.980469 241.886719 282.449219 247.089844 282.449219 252.320312 C 282.449219 255.011719 282.320312 257.765625 282.066406 260.472656 C 282.003906 261.144531 281.609375 261.753906 281.027344 262.09375 C 280.722656 262.273438 280.367188 262.375 280 262.375 Z M 239.175781 184.484375 C 240.875 208.4375 258.960938 245.414062 278.160156 256.929688 C 278.25 255.394531 278.285156 253.84375 278.285156 252.320312 C 278.285156 247.535156 277.867188 242.773438 277.054688 238.15625 C 270.429688 230.574219 259.238281 215.507812 255.125 196.417969 C 250.355469 191.769531 245 187.757812 239.175781 184.484375 Z M 239.175781 184.484375 " fill-opacity="1" fill-rule="nonzero"/><path fill="#371a45" d="M 128.960938 315.222656 C 128.210938 315.296875 127.460938 315.371094 126.738281 315.449219 C 125.902344 314.460938 125.089844 313.457031 124.289062 312.429688 C 121.6875 309.039062 119.355469 305.421875 117.324219 301.601562 C 117.058594 301.09375 116.789062 300.597656 116.535156 300.089844 C 132.222656 297.996094 147.832031 292.078125 150.824219 277.289062 C 157.195312 245.886719 147.84375 236.820312 145.039062 228.46875 C 143.542969 224 133.984375 216.839844 125.316406 210.824219 C 126.449219 209.289062 127.601562 207.777344 128.820312 206.304688 C 130.660156 204.082031 132.601562 201.925781 134.632812 199.882812 C 147.84375 210.304688 168.617188 228.925781 170.710938 244.449219 C 173.339844 263.972656 173.148438 310.703125 128.960938 315.222656 Z M 128.960938 315.222656 " fill-opacity="0.2" fill-rule="nonzero"/><path fill="#ea7344" d="M 164.136719 260.738281 C 161.460938 300.367188 129.9375 302.386719 117.324219 301.585938 C 115.851562 298.832031 113.757812 293.273438 112.144531 288.691406 C 111.449219 286.710938 110.839844 284.90625 110.40625 283.597656 C 119.886719 284.714844 144.289062 290.390625 145.355469 260.726562 C 145.597656 254.085938 144.886719 248.285156 143.578125 243.246094 C 139.300781 226.769531 128.492188 218.328125 122.5625 214.808594 C 126.472656 208.804688 131.066406 203.246094 136.246094 198.269531 C 148.007812 207.128906 166.445312 226.628906 164.136719 260.738281 Z M 164.136719 260.738281 " fill-opacity="1" fill-rule="nonzero"/><path fill="#ffffff" d="M 144.074219 279.894531 C 135.253906 290.503906 120 290.417969 112.132812 288.691406 C 111.433594 286.710938 110.824219 284.90625 110.394531 283.597656 C 119.875 284.714844 144.277344 290.390625 145.34375 260.726562 C 145.585938 254.085938 144.695312 242.914062 143.390625 237.875 C 149.695312 250 153.25 268.847656 144.074219 279.894531 Z M 144.074219 279.894531 " fill-opacity="0.6" fill-rule="nonzero"/><path fill="#371a45" d="M 164.960938 261.09375 C 162.285156 300.722656 130.761719 302.742188 118.136719 301.941406 C 117.042969 299.898438 115.621094 296.320312 114.289062 292.753906 C 128.222656 293.007812 155.824219 288.765625 158.324219 251.789062 C 159.519531 234.054688 155.113281 220.269531 148.960938 209.882812 C 158.1875 220.800781 166.5625 237.429688 164.960938 261.09375 Z M 164.960938 261.09375 " fill-opacity="0.3" fill-rule="nonzero"/><path fill="#371a45" d="M 121.105469 303.796875 C 119.632812 303.796875 118.3125 303.746094 117.183594 303.667969 C 116.460938 303.617188 115.8125 303.210938 115.46875 302.566406 C 113.363281 298.605469 110.039062 289.199219 108.414062 284.257812 C 108.1875 283.585938 108.324219 282.839844 108.78125 282.28125 C 109.238281 281.722656 109.9375 281.441406 110.648438 281.53125 C 111.347656 281.605469 112.132812 281.722656 112.984375 281.835938 C 119.304688 282.699219 129.875 284.144531 136.511719 278.558594 C 140.699219 275.042969 142.96875 269.015625 143.273438 260.660156 C 144.265625 233.152344 128.375 220.699219 121.511719 216.613281 C 121.015625 216.320312 120.671875 215.851562 120.546875 215.292969 C 120.417969 214.734375 120.519531 214.148438 120.824219 213.679688 C 124.808594 207.550781 129.503906 201.863281 134.808594 196.773438 C 135.546875 196.0625 136.6875 195.996094 137.511719 196.605469 C 149.265625 205.441406 168.628906 225.550781 166.246094 260.878906 C 165.039062 278.738281 158.046875 291.28125 145.484375 298.160156 C 136.96875 302.804688 127.578125 303.796875 121.105469 303.796875 Z M 118.644531 299.570312 C 131.789062 300.140625 159.59375 296.964844 162.054688 260.597656 C 164.214844 228.632812 147.550781 209.882812 136.410156 201.050781 C 132.375 205.085938 128.707031 209.503906 125.496094 214.199219 C 133.667969 219.632812 148.425781 233.316406 147.449219 260.828125 C 147.105469 270.410156 144.328125 277.457031 139.203125 281.773438 C 131.535156 288.234375 120.546875 287.089844 113.464844 286.136719 C 114.949219 290.46875 117.070312 296.269531 118.644531 299.570312 Z M 118.644531 299.570312 " fill-opacity="1" fill-rule="nonzero"/><path fill="#371a45" d="M 259.871094 198.34375 C 206.128906 273.621094 131.839844 244.527344 112.613281 235.222656 C 115.0625 228.011719 118.425781 221.167969 122.550781 214.824219 C 126.460938 208.816406 131.054688 203.257812 136.230469 198.28125 C 151.535156 183.542969 171.851562 173.859375 194.148438 172.425781 C 209.734375 171.421875 224.339844 174.582031 236.953125 180.929688 C 244.429688 184.6875 251.191406 189.5625 257.03125 195.363281 C 258.007812 196.339844 258.960938 197.332031 259.871094 198.34375 Z M 259.871094 198.34375 " fill-opacity="0.4" fill-rule="nonzero"/><path fill="#413757" d="M 43.3125 99.839844 C 43.351562 99.929688 43.390625 100.03125 43.441406 100.105469 C 49.9375 114.488281 66.726562 121.027344 81.105469 114.714844 C 95.570312 108.355469 102.09375 91.382812 95.699219 76.8125 C 94.949219 75.125 94.074219 73.535156 93.058594 72.0625 C 85.394531 60.855469 70.699219 56.3125 57.90625 61.933594 C 43.441406 68.292969 36.917969 85.265625 43.3125 99.839844 Z M 43.3125 99.839844 " fill-opacity="1" fill-rule="nonzero"/><path fill="#feffff" d="M 80.265625 84.152344 C 80.574219 84.851562 80.808594 85.574219 80.976562 86.316406 C 81.140625 87.0625 81.234375 87.8125 81.25 88.574219 C 81.269531 89.335938 81.214844 90.09375 81.085938 90.84375 C 80.957031 91.59375 80.753906 92.320312 80.480469 93.03125 C 80.210938 93.738281 79.871094 94.414062 79.464844 95.054688 C 79.058594 95.695312 78.59375 96.292969 78.074219 96.839844 C 77.550781 97.390625 76.980469 97.882812 76.359375 98.316406 C 75.742188 98.75 75.085938 99.121094 74.390625 99.425781 C 73.699219 99.730469 72.984375 99.964844 72.246094 100.125 C 71.503906 100.289062 70.757812 100.378906 70 100.390625 C 69.242188 100.40625 68.492188 100.347656 67.746094 100.210938 C 66.996094 100.078125 66.269531 99.871094 65.566406 99.59375 C 64.859375 99.3125 64.183594 98.96875 63.542969 98.558594 C 62.90625 98.148438 62.308594 97.675781 61.761719 97.148438 C 61.214844 96.621094 60.722656 96.042969 60.285156 95.417969 C 59.847656 94.792969 59.476562 94.132812 59.171875 93.433594 C 58.863281 92.734375 58.625 92.011719 58.460938 91.269531 C 58.296875 90.523438 58.203125 89.773438 58.183594 89.011719 C 58.164062 88.25 58.222656 87.492188 58.351562 86.742188 C 58.480469 85.992188 58.683594 85.265625 58.953125 84.554688 C 59.226562 83.847656 59.566406 83.171875 59.972656 82.53125 C 60.378906 81.890625 60.839844 81.292969 61.363281 80.746094 C 61.886719 80.195312 62.457031 79.703125 63.074219 79.269531 C 63.695312 78.835938 64.351562 78.464844 65.042969 78.160156 C 65.738281 77.855469 66.453125 77.621094 67.191406 77.460938 C 67.929688 77.296875 68.679688 77.207031 69.4375 77.195312 C 70.195312 77.179688 70.945312 77.238281 71.691406 77.375 C 72.4375 77.507812 73.164062 77.714844 73.871094 77.992188 C 74.578125 78.273438 75.25 78.617188 75.890625 79.027344 C 76.53125 79.4375 77.125 79.910156 77.675781 80.4375 C 78.222656 80.964844 78.714844 81.542969 79.152344 82.167969 C 79.585938 82.792969 79.960938 83.457031 80.265625 84.152344 Z M 80.265625 84.152344 " fill-opacity="1" fill-rule="nonzero"/><path fill="#371a45" d="M 43.441406 100.105469 C 49.9375 114.488281 66.726562 121.027344 81.105469 114.714844 C 95.570312 108.355469 102.09375 91.382812 95.699219 76.8125 C 94.949219 75.125 94.074219 73.535156 93.058594 72.0625 L 92.464844 72.027344 C 91.726562 72.34375 74.035156 77.21875 68.769531 106.363281 C 68.757812 106.351562 55.292969 112.582031 43.441406 100.105469 Z M 43.441406 100.105469 " fill-opacity="0.4" fill-rule="nonzero"/><path fill="#ffffff" d="M 43.199219 99.585938 C 43.695312 100.726562 44.265625 101.804688 44.886719 102.847656 C 41.296875 90.726562 45.382812 76.214844 55.585938 68.953125 C 56.257812 70.160156 59.011719 70.148438 61.855469 68.902344 C 64.429688 67.773438 66.21875 65.996094 66.195312 64.6875 C 78.007812 62.925781 90.621094 69.613281 96.855469 80 C 96.511719 78.84375 96.09375 77.6875 95.585938 76.546875 C 89.175781 61.972656 72.261719 55.308594 57.792969 61.667969 C 43.328125 68.027344 36.789062 85 43.199219 99.585938 Z M 43.199219 99.585938 " fill-opacity="0.6" fill-rule="nonzero"/><path fill="#371a45" d="M 69.695312 119.25 C 57.832031 119.25 46.460938 112.304688 41.359375 100.703125 C 38.035156 93.136719 37.832031 84.734375 40.789062 77.039062 C 43.746094 69.347656 49.519531 63.28125 57.042969 59.980469 C 64.570312 56.667969 72.933594 56.515625 80.597656 59.535156 C 88.261719 62.554688 94.316406 68.382812 97.640625 75.949219 C 100.964844 83.515625 101.167969 91.917969 98.210938 99.609375 C 95.253906 107.304688 89.480469 113.371094 81.957031 116.671875 C 77.96875 118.421875 73.808594 119.25 69.695312 119.25 Z M 45.269531 98.976562 C 51.195312 112.445312 66.878906 118.625 80.242188 112.75 C 86.714844 109.90625 91.675781 104.6875 94.226562 98.0625 C 96.777344 91.433594 96.601562 84.1875 93.730469 77.648438 C 90.863281 71.125 85.636719 66.097656 79.035156 63.496094 C 72.4375 60.894531 65.230469 61.03125 58.757812 63.875 C 52.285156 66.71875 47.324219 71.9375 44.773438 78.5625 C 42.222656 85.203125 42.398438 92.449219 45.269531 98.976562 Z M 45.269531 98.976562 " fill-opacity="1" fill-rule="nonzero"/><path fill="#413757" d="M 217.003906 39.746094 C 217.019531 39.832031 217.03125 39.933594 217.042969 40.023438 C 219.085938 54.417969 209.226562 67.785156 194.9375 69.957031 C 180.546875 72.140625 167.105469 62.148438 164.898438 47.652344 C 164.644531 45.964844 164.554688 44.300781 164.621094 42.664062 C 165.0625 30.171875 174.265625 19.382812 186.980469 17.453125 C 201.359375 15.269531 214.808594 25.25 217.003906 39.746094 Z M 217.003906 39.746094 " fill-opacity="1" fill-rule="nonzero"/><path fill="#feffff" d="M 201.53125 42.59375 C 201.636719 43.289062 201.671875 43.988281 201.640625 44.691406 C 201.609375 45.390625 201.511719 46.082031 201.34375 46.765625 C 201.175781 47.445312 200.945312 48.105469 200.652344 48.742188 C 200.355469 49.378906 200 49.976562 199.585938 50.542969 C 199.175781 51.109375 198.710938 51.628906 198.195312 52.101562 C 197.679688 52.574219 197.125 52.992188 196.527344 53.351562 C 195.929688 53.714844 195.304688 54.015625 194.648438 54.253906 C 193.992188 54.492188 193.320312 54.664062 192.632812 54.769531 C 191.941406 54.871094 191.25 54.910156 190.550781 54.875 C 189.855469 54.84375 189.167969 54.742188 188.492188 54.570312 C 187.8125 54.402344 187.160156 54.167969 186.527344 53.871094 C 185.894531 53.570312 185.296875 53.210938 184.734375 52.796875 C 184.175781 52.378906 183.65625 51.910156 183.1875 51.390625 C 182.714844 50.871094 182.300781 50.308594 181.9375 49.707031 C 181.578125 49.105469 181.277344 48.476562 181.039062 47.8125 C 180.804688 47.152344 180.632812 46.476562 180.527344 45.78125 C 180.421875 45.085938 180.382812 44.386719 180.414062 43.6875 C 180.445312 42.984375 180.546875 42.292969 180.710938 41.609375 C 180.878906 40.929688 181.109375 40.269531 181.40625 39.632812 C 181.699219 39 182.054688 38.398438 182.46875 37.832031 C 182.882812 37.265625 183.34375 36.75 183.859375 36.277344 C 184.375 35.800781 184.929688 35.386719 185.527344 35.023438 C 186.125 34.660156 186.75 34.359375 187.40625 34.121094 C 188.0625 33.882812 188.734375 33.710938 189.425781 33.609375 C 190.113281 33.503906 190.808594 33.46875 191.503906 33.5 C 192.199219 33.53125 192.886719 33.632812 193.566406 33.804688 C 194.242188 33.972656 194.898438 34.207031 195.527344 34.503906 C 196.160156 34.804688 196.757812 35.164062 197.320312 35.582031 C 197.882812 35.996094 198.398438 36.464844 198.867188 36.984375 C 199.339844 37.503906 199.753906 38.066406 200.117188 38.667969 C 200.476562 39.269531 200.777344 39.902344 201.015625 40.5625 C 201.253906 41.222656 201.425781 41.898438 201.53125 42.59375 Z M 201.53125 42.59375 " fill-opacity="1" fill-rule="nonzero"/><path fill="#371a45" d="M 217.042969 40.023438 C 219.085938 54.417969 209.226562 67.785156 194.9375 69.957031 C 180.546875 72.140625 167.105469 62.148438 164.898438 47.652344 C 164.644531 45.964844 164.554688 44.300781 164.621094 42.664062 L 165.0625 42.335938 C 165.789062 42.21875 181.953125 37.28125 200.417969 57.363281 C 200.417969 57.363281 213.972656 55.5625 217.042969 40.023438 Z M 217.042969 40.023438 " fill-opacity="0.4" fill-rule="nonzero"/><path fill="#ffffff" d="M 216.96875 39.492188 C 217.144531 40.621094 217.234375 41.75 217.257812 42.867188 C 214.074219 31.671875 203.742188 22.390625 192.234375 21.769531 C 192.308594 23.039062 190.164062 24.386719 187.335938 24.816406 C 184.773438 25.210938 182.5 24.703125 181.890625 23.675781 C 171.839844 28.128906 165.304688 39.542969 165.585938 50.699219 C 165.28125 49.621094 165.039062 48.527344 164.875 47.386719 C 162.679688 32.890625 172.5625 19.359375 186.941406 17.175781 C 201.320312 15.003906 214.773438 24.996094 216.96875 39.492188 Z M 216.96875 39.492188 " fill-opacity="0.6" fill-rule="nonzero"/><path fill="#371a45" d="M 190.988281 72.382812 C 177.144531 72.382812 164.9375 62.164062 162.792969 47.972656 C 161.648438 40.390625 163.492188 32.828125 167.996094 26.671875 C 172.5 20.5 179.125 16.476562 186.648438 15.335938 C 194.175781 14.191406 201.699219 16.070312 207.832031 20.628906 C 213.960938 25.171875 217.96875 31.847656 219.113281 39.425781 C 221.484375 55.066406 210.773438 69.703125 195.253906 72.0625 C 193.820312 72.28125 192.398438 72.382812 190.988281 72.382812 Z M 190.953125 19.28125 C 189.734375 19.28125 188.515625 19.371094 187.296875 19.5625 C 180.902344 20.527344 175.28125 23.953125 171.445312 29.195312 C 167.613281 34.4375 166.042969 40.886719 167.019531 47.335938 C 169.035156 60.652344 181.421875 69.84375 194.621094 67.851562 C 207.816406 65.84375 216.917969 53.390625 214.898438 40.074219 C 213.921875 33.625 210.507812 27.9375 205.292969 24.066406 C 201.066406 20.933594 196.078125 19.28125 190.953125 19.28125 Z M 190.953125 19.28125 " fill-opacity="1" fill-rule="nonzero"/><path fill="#ffffff" d="M 269.796875 140.332031 C 269.796875 160.960938 260.710938 178.109375 249.085938 193.75 C 230.875 218.289062 206.574219 233.546875 169.238281 236.277344 C 146.144531 237.964844 121.652344 231.605469 105.203125 219.101562 C 88.324219 206.28125 78.019531 186.617188 73.730469 164.847656 C 73.730469 164.847656 73.71875 164.832031 73.730469 164.832031 C 72.183594 156.960938 71.421875 148.800781 71.421875 140.601562 C 71.421875 87.613281 96.28125 43.566406 151.800781 43.566406 C 175.230469 43.566406 191.917969 51.894531 212.996094 68.75 C 227.449219 80.300781 241.027344 87.398438 253.972656 99.980469 C 254.339844 100.347656 254.707031 100.703125 255.074219 101.070312 C 267.257812 113.257812 269.796875 124.859375 269.796875 140.332031 Z M 269.796875 140.332031 " fill-opacity="1" fill-rule="nonzero"/><path fill="#371a45" d="M 161.929688 238.675781 C 140.445312 238.675781 118.769531 232.085938 103.921875 220.800781 C 81.917969 204.070312 69.289062 174.835938 69.289062 140.601562 C 69.289062 112.378906 76.128906 88.289062 89.085938 70.933594 C 103.492188 51.625 125.179688 41.433594 151.816406 41.433594 C 176.890625 41.433594 194.328125 51.246094 214.328125 67.074219 C 220.179688 71.707031 225.699219 75.542969 231.039062 79.25 C 239.871094 85.378906 248.210938 91.179688 256.597656 99.574219 C 269.378906 112.355469 271.941406 124.644531 271.941406 140.332031 C 271.941406 163.589844 260.648438 181.78125 250.8125 195.03125 C 230.761719 222.03125 204.898438 235.820312 169.417969 238.410156 C 166.929688 238.585938 164.429688 238.675781 161.929688 238.675781 Z M 151.816406 45.710938 C 102.816406 45.710938 73.566406 81.191406 73.566406 140.613281 C 73.566406 173.503906 85.570312 201.492188 106.511719 217.414062 C 122.285156 229.410156 146.269531 235.820312 169.097656 234.15625 C 203.261719 231.667969 228.132812 218.429688 247.371094 192.492188 C 261.410156 173.59375 267.664062 157.507812 267.664062 140.347656 C 267.664062 125.367188 265.355469 114.398438 253.578125 102.605469 C 245.46875 94.496094 237.273438 88.796875 228.605469 82.777344 C 223.210938 79.035156 217.640625 75.160156 211.6875 70.453125 C 191.890625 54.773438 175.75 45.710938 151.816406 45.710938 Z M 151.816406 45.710938 " fill-opacity="1" fill-rule="nonzero"/><path fill="#371a45" d="M 206.15625 200.808594 C 205.113281 202.953125 203.742188 204.554688 201.941406 205.316406 C 195.367188 208.070312 189.164062 198.953125 185.140625 190.882812 C 182.257812 185.117188 180.496094 179.875 180.496094 179.875 C 192.664062 180.789062 194.125 167.15625 193.933594 163.703125 C 193.933594 163.703125 201.867188 166.722656 207.78125 163.105469 C 207.882812 163.78125 211.523438 189.6875 206.15625 200.808594 Z M 206.15625 200.808594 " fill-opacity="1" fill-rule="nonzero"/><path fill="#f03784" d="M 206.15625 200.808594 C 205.113281 202.953125 203.742188 204.554688 201.941406 205.316406 C 195.367188 208.070312 189.164062 198.953125 185.140625 190.882812 C 191.777344 188.9375 203.488281 187.566406 206.15625 200.808594 Z M 206.15625 200.808594 " fill-opacity="1" fill-rule="nonzero"/><path fill="#371a45" d="M 172.234375 153.179688 C 171.394531 148.128906 187.984375 136.371094 192.5625 139.941406 C 196.535156 143.023438 192.933594 156.113281 189.023438 157.964844 C 184.582031 160.058594 173.019531 157.839844 172.234375 153.179688 Z M 172.234375 153.179688 " fill-opacity="1" fill-rule="nonzero"/><path fill="#ffffff" d="M 187.144531 144.132812 C 187.261719 144.3125 187.289062 144.542969 187.222656 144.824219 C 187.15625 145.105469 187 145.417969 186.761719 145.757812 C 186.519531 146.09375 186.210938 146.4375 185.832031 146.78125 C 185.457031 147.128906 185.039062 147.449219 184.578125 147.75 C 184.121094 148.046875 183.65625 148.300781 183.191406 148.507812 C 182.722656 148.714844 182.285156 148.859375 181.875 148.945312 C 181.46875 149.027344 181.125 149.042969 180.839844 148.992188 C 180.554688 148.941406 180.355469 148.824219 180.238281 148.644531 C 180.121094 148.464844 180.09375 148.230469 180.160156 147.949219 C 180.226562 147.671875 180.378906 147.359375 180.621094 147.019531 C 180.863281 146.683594 181.171875 146.339844 181.550781 145.996094 C 181.925781 145.648438 182.34375 145.328125 182.804688 145.027344 C 183.261719 144.730469 183.722656 144.476562 184.191406 144.269531 C 184.660156 144.0625 185.097656 143.914062 185.503906 143.832031 C 185.914062 143.746094 186.257812 143.730469 186.542969 143.785156 C 186.828125 143.835938 187.027344 143.953125 187.144531 144.132812 Z M 187.144531 144.132812 " fill-opacity="1" fill-rule="nonzero"/><path fill="#371a45" d="M 181.648438 182.058594 C 181.21875 182.058594 180.789062 182.046875 180.332031 182.007812 C 176.105469 181.691406 172.882812 180.15625 170.75 177.4375 C 167.207031 172.933594 168.160156 166.890625 168.210938 166.636719 C 168.402344 165.46875 169.503906 164.679688 170.671875 164.882812 C 171.839844 165.074219 172.613281 166.179688 172.425781 167.332031 C 172.410156 167.433594 171.765625 171.839844 174.125 174.824219 C 175.496094 176.550781 177.679688 177.539062 180.648438 177.753906 C 183.65625 177.984375 186.015625 177.222656 187.84375 175.421875 C 191.382812 171.953125 191.902344 165.734375 191.800781 163.816406 C 191.765625 163.09375 192.09375 162.410156 192.679688 161.976562 C 193.261719 161.558594 194.023438 161.445312 194.695312 161.710938 C 195.101562 161.863281 204.671875 165.367188 209.265625 158.816406 C 211.308594 155.910156 211.800781 152.304688 210.609375 149.167969 C 209.542969 146.402344 207.335938 144.445312 204.542969 143.800781 C 203.386719 143.53125 202.679688 142.390625 202.933594 141.234375 C 203.199219 140.078125 204.339844 139.367188 205.496094 139.621094 C 209.695312 140.585938 213.007812 143.496094 214.59375 147.621094 C 216.308594 152.074219 215.621094 157.179688 212.765625 161.253906 C 208.046875 167.980469 200.164062 167.398438 195.976562 166.484375 C 195.609375 170.089844 194.277344 175.089844 190.835938 178.453125 C 188.402344 180.851562 185.316406 182.058594 181.648438 182.058594 Z M 181.648438 182.058594 " fill-opacity="1" fill-rule="nonzero"/><path fill="#371a45" d="M 199.519531 207.957031 C 195.203125 207.957031 189.542969 204.503906 183.222656 191.832031 C 180.316406 186.007812 178.539062 180.777344 178.464844 180.5625 C 178.085938 179.445312 178.691406 178.238281 179.808594 177.855469 C 180.925781 177.476562 182.144531 178.085938 182.511719 179.203125 C 182.527344 179.253906 184.277344 184.382812 187.042969 189.941406 C 189.214844 194.296875 194.480469 203.675781 199.542969 203.675781 C 200.0625 203.675781 200.582031 203.574219 201.105469 203.359375 C 202.308594 202.851562 203.363281 201.683594 204.226562 199.894531 C 209.328125 189.34375 205.699219 163.664062 205.660156 163.410156 C 205.496094 162.242188 206.308594 161.164062 207.476562 160.988281 C 208.640625 160.820312 209.722656 161.632812 209.898438 162.800781 C 210.0625 163.90625 213.742188 190.03125 208.082031 201.761719 C 206.75 204.515625 204.960938 206.382812 202.765625 207.308594 C 201.789062 207.6875 200.710938 207.957031 199.519531 207.957031 Z M 199.519531 207.957031 " fill-opacity="1" fill-rule="nonzero"/><path fill="#371a45" d="M 269.796875 140.332031 C 269.796875 160.960938 260.710938 178.109375 249.085938 193.75 C 230.875 218.289062 206.574219 233.546875 169.238281 236.277344 C 146.144531 237.964844 121.652344 231.605469 105.203125 219.101562 C 88.324219 206.28125 78.019531 186.617188 73.730469 164.847656 C 84.875 195.335938 115.078125 231.605469 183.589844 222.363281 C 250.609375 213.324219 279.199219 135.851562 253.972656 99.980469 C 254.339844 100.347656 254.707031 100.703125 255.074219 101.070312 C 267.257812 113.257812 269.796875 124.859375 269.796875 140.332031 Z M 269.796875 140.332031 " fill-opacity="0.3" fill-rule="nonzero"/><path fill="#371a45" d="M 186.039062 159.058594 C 186.039062 159.058594 189.238281 172.488281 179.011719 174.40625 C 179.011719 174.40625 174.023438 175.6875 169.417969 172.488281 C 169.417969 172.488281 184.503906 195.335938 192.460938 167.117188 L 192.753906 165.125 C 192.753906 165.125 211.929688 170.242188 211.292969 152.328125 C 211.292969 152.328125 198.503906 165.125 189.554688 153.613281 Z M 186.039062 159.058594 " fill-opacity="0.3" fill-rule="nonzero"/><path fill="#413757" d="M 128.363281 123.832031 C 119.226562 129.417969 107.714844 142.058594 113.820312 166.519531 C 119.152344 187.835938 134.632812 193.027344 148.554688 184.394531 C 162.488281 175.75 155 163.84375 154.453125 151.492188 C 153.921875 139.535156 160.671875 134.289062 155.671875 127.105469 C 152.347656 122.332031 140.914062 116.164062 128.363281 123.832031 Z M 128.363281 123.832031 " fill-opacity="1" fill-rule="nonzero"/><path fill="#413757" d="M 192.398438 91.128906 C 201.128906 86.371094 218.71875 86.21875 234.238281 101.148438 C 249.453125 116.722656 246.777344 132.425781 233.351562 139.621094 C 219.9375 146.820312 213.453125 134.339844 203.503906 127.449219 C 193.859375 120.773438 186.484375 123.703125 182.792969 115.769531 C 180.355469 110.503906 180.40625 97.667969 192.398438 91.128906 Z M 192.398438 91.128906 " fill-opacity="1" fill-rule="nonzero"/><path fill="#ffffff" d="M 130.507812 158.5 C 129.390625 156.53125 129.390625 154.511719 129.898438 152.660156 C 130.433594 150.820312 131.625 149.105469 133.273438 147.898438 C 133.707031 147.621094 134.101562 147.300781 134.582031 147.097656 C 135.0625 146.894531 135.507812 146.65625 136.003906 146.515625 C 137.003906 146.261719 138.007812 146.058594 139.023438 146.160156 C 140.027344 146.183594 141.003906 146.503906 141.890625 146.894531 C 142.347656 147.085938 142.753906 147.402344 143.160156 147.722656 C 143.363281 147.886719 143.554688 148.050781 143.746094 148.230469 C 143.933594 148.433594 144.113281 148.609375 144.277344 148.839844 L 144.390625 148.992188 C 144.453125 149.078125 144.429688 149.195312 144.351562 149.257812 C 144.316406 149.28125 144.277344 149.296875 144.238281 149.296875 C 142.753906 149.296875 141.28125 149.332031 139.875 149.738281 C 139.164062 149.890625 138.503906 150.183594 137.832031 150.449219 C 137.195312 150.792969 136.550781 151.125 135.992188 151.582031 C 134.808594 152.417969 133.820312 153.496094 132.984375 154.691406 C 132.5625 155.285156 132.183594 155.921875 131.851562 156.570312 C 131.5 157.214844 131.195312 157.902344 130.964844 158.585938 C 130.925781 158.6875 130.8125 158.753906 130.710938 158.714844 C 130.660156 158.703125 130.621094 158.664062 130.597656 158.625 Z M 130.507812 158.5 " fill-opacity="1" fill-rule="nonzero"/><path fill="#ffffff" d="M 207.207031 116.796875 C 205.914062 115.097656 205.671875 113.21875 205.914062 111.429688 C 206.179688 109.640625 207.082031 107.898438 208.476562 106.566406 C 209.164062 105.894531 210 105.359375 210.851562 104.929688 C 211.75 104.574219 212.664062 104.257812 213.617188 104.230469 C 214.554688 104.128906 215.496094 104.292969 216.382812 104.5625 C 216.828125 104.675781 217.257812 104.917969 217.679688 105.183594 C 217.878906 105.324219 218.082031 105.449219 218.285156 105.589844 C 218.488281 105.753906 218.679688 105.894531 218.859375 106.085938 L 218.984375 106.210938 C 219.046875 106.289062 219.046875 106.402344 218.972656 106.464844 C 218.945312 106.492188 218.910156 106.503906 218.871094 106.515625 C 217.488281 106.707031 216.117188 106.921875 214.859375 107.46875 C 214.214844 107.695312 213.628906 108.050781 213.046875 108.382812 C 212.5 108.789062 211.929688 109.167969 211.472656 109.664062 C 210.480469 110.589844 209.683594 111.722656 209.046875 112.9375 C 208.730469 113.546875 208.453125 114.183594 208.222656 114.84375 C 207.96875 115.492188 207.78125 116.164062 207.640625 116.835938 C 207.613281 116.9375 207.527344 117 207.425781 116.988281 C 207.375 116.976562 207.335938 116.949219 207.308594 116.914062 Z M 207.207031 116.796875 " fill-opacity="1" fill-rule="nonzero"/><path fill="#413757" d="M 262.816406 323.117188 C 256.96875 338.132812 239.949219 353.875 227.957031 355.640625 C 208.871094 358.445312 177.460938 342.5625 177.460938 342.5625 C 177.460938 307.503906 187.984375 290.605469 203.363281 283.96875 L 203.375 283.96875 C 211.003906 280.667969 219.824219 279.90625 229.148438 280.691406 C 231.902344 280.933594 234.683594 281.300781 237.5 281.773438 C 244.988281 283.054688 253.578125 288.03125 260.101562 299.390625 C 261.433594 301.738281 262.691406 304.355469 263.832031 307.273438 C 265.632812 311.921875 265.011719 317.46875 262.816406 323.117188 Z M 262.816406 323.117188 " fill-opacity="1" fill-rule="nonzero"/><path fill="#ffffff" d="M 263.832031 320.121094 C 262.410156 312.554688 256.484375 295.746094 239.910156 288.296875 C 226.078125 282.078125 212.359375 283.625 203.386719 286.214844 C 203.386719 286.214844 185.839844 291.203125 182.460938 293.007812 C 196.34375 284.792969 211.613281 277.441406 229.148438 280.679688 C 231.992188 281.199219 235.039062 281.925781 238.3125 282.839844 C 247.5625 285.441406 254.734375 292.042969 260.101562 299.378906 C 261.433594 301.726562 262.691406 304.34375 263.832031 307.261719 C 265.632812 311.921875 266.039062 314.472656 263.832031 320.121094 Z M 263.832031 320.121094 " fill-opacity="0.6" fill-rule="nonzero"/><path fill="#ffffff" d="M 256.175781 306.242188 C 256.585938 306.667969 256.960938 307.125 257.300781 307.613281 C 257.640625 308.105469 257.941406 308.625 258.207031 309.171875 C 258.472656 309.722656 258.699219 310.296875 258.890625 310.902344 C 259.078125 311.507812 259.230469 312.132812 259.339844 312.785156 C 259.449219 313.4375 259.519531 314.113281 259.550781 314.804688 C 259.582031 315.5 259.574219 316.210938 259.527344 316.941406 C 259.476562 317.671875 259.390625 318.417969 259.261719 319.175781 C 259.132812 319.933594 258.964844 320.703125 258.761719 321.484375 C 258.554688 322.261719 258.3125 323.050781 258.027344 323.84375 C 257.746094 324.636719 257.429688 325.433594 257.074219 326.230469 C 256.71875 327.03125 256.328125 327.832031 255.902344 328.628906 C 255.476562 329.425781 255.019531 330.21875 254.527344 331.007812 C 254.035156 331.796875 253.515625 332.574219 252.960938 333.347656 C 252.410156 334.121094 251.828125 334.878906 251.222656 335.625 C 250.613281 336.375 249.980469 337.105469 249.320312 337.820312 C 248.664062 338.535156 247.984375 339.234375 247.28125 339.910156 C 246.582031 340.585938 245.859375 341.242188 245.121094 341.875 C 244.382812 342.507812 243.628906 343.113281 242.863281 343.695312 C 242.09375 344.277344 241.3125 344.828125 240.523438 345.355469 C 239.734375 345.878906 238.933594 346.371094 238.128906 346.835938 C 237.324219 347.296875 236.515625 347.726562 235.703125 348.125 C 234.890625 348.519531 234.078125 348.882812 233.269531 349.210938 C 232.457031 349.535156 231.648438 349.828125 230.847656 350.082031 C 230.042969 350.335938 229.25 350.550781 228.464844 350.726562 C 227.675781 350.90625 226.902344 351.046875 226.140625 351.144531 C 225.378906 351.246094 224.632812 351.308594 223.898438 351.332031 C 223.167969 351.355469 222.457031 351.335938 221.765625 351.28125 C 221.070312 351.226562 220.402344 351.128906 219.753906 350.996094 C 219.105469 350.863281 218.484375 350.691406 217.886719 350.480469 C 217.292969 350.269531 216.722656 350.023438 216.183594 349.738281 C 215.644531 349.453125 215.136719 349.128906 214.660156 348.773438 C 214.183594 348.417969 213.738281 348.023438 213.328125 347.601562 C 212.917969 347.175781 212.542969 346.71875 212.203125 346.226562 C 211.863281 345.738281 211.5625 345.21875 211.296875 344.667969 C 211.03125 344.117188 210.800781 343.542969 210.613281 342.9375 C 210.425781 342.335938 210.273438 341.707031 210.164062 341.054688 C 210.054688 340.402344 209.980469 339.730469 209.949219 339.035156 C 209.917969 338.339844 209.929688 337.628906 209.976562 336.898438 C 210.027344 336.167969 210.113281 335.425781 210.242188 334.664062 C 210.371094 333.90625 210.535156 333.136719 210.742188 332.359375 C 210.949219 331.578125 211.191406 330.792969 211.472656 330 C 211.757812 329.203125 212.074219 328.410156 212.429688 327.609375 C 212.785156 326.808594 213.175781 326.011719 213.601562 325.214844 C 214.027344 324.414062 214.484375 323.621094 214.976562 322.832031 C 215.46875 322.046875 215.988281 321.265625 216.542969 320.492188 C 217.09375 319.722656 217.675781 318.960938 218.28125 318.214844 C 218.890625 317.46875 219.523438 316.734375 220.179688 316.019531 C 220.839844 315.304688 221.519531 314.609375 222.222656 313.929688 C 222.921875 313.253906 223.640625 312.597656 224.382812 311.964844 C 225.121094 311.335938 225.871094 310.726562 226.640625 310.144531 C 227.410156 309.566406 228.1875 309.011719 228.980469 308.488281 C 229.769531 307.960938 230.566406 307.46875 231.371094 307.007812 C 232.179688 306.542969 232.988281 306.113281 233.800781 305.714844 C 234.613281 305.320312 235.421875 304.957031 236.234375 304.632812 C 237.046875 304.304688 237.851562 304.015625 238.65625 303.761719 C 239.457031 303.507812 240.253906 303.292969 241.039062 303.113281 C 241.824219 302.933594 242.601562 302.796875 243.363281 302.695312 C 244.125 302.59375 244.871094 302.53125 245.601562 302.507812 C 246.332031 302.488281 247.046875 302.503906 247.738281 302.558594 C 248.429688 302.617188 249.101562 302.710938 249.75 302.84375 C 250.394531 302.976562 251.019531 303.152344 251.613281 303.359375 C 252.210938 303.570312 252.777344 303.820312 253.320312 304.105469 C 253.859375 304.390625 254.367188 304.710938 254.84375 305.066406 C 255.320312 305.425781 255.765625 305.816406 256.175781 306.242188 Z M 256.175781 306.242188 " fill-opacity="1" fill-rule="nonzero"/><path fill="#371a45" d="M 223.082031 358.050781 C 203.71875 358.050781 177.714844 345.027344 176.523438 344.417969 C 175.496094 343.898438 175.078125 342.640625 175.597656 341.613281 C 176.117188 340.582031 177.375 340.164062 178.402344 340.683594 C 178.707031 340.835938 209.453125 356.234375 227.652344 353.558594 C 237.09375 352.171875 250.671875 340.875 257.917969 328.382812 C 262.511719 320.488281 263.910156 313.253906 261.878906 308.023438 C 255.660156 292.09375 245.648438 287.128906 236.75 283.714844 C 225.152344 279.269531 200.558594 278.269531 183.910156 294.503906 C 183.085938 295.316406 181.765625 295.289062 180.953125 294.464844 C 180.152344 293.640625 180.164062 292.320312 180.988281 291.507812 C 199.035156 273.925781 225.683594 275.003906 238.234375 279.816406 C 248.679688 283.816406 259.25 289.820312 265.761719 306.511719 C 268.984375 314.765625 265.242188 324.105469 261.523438 330.492188 C 253.578125 344.175781 238.960938 356.121094 228.25 357.707031 C 226.613281 357.949219 224.875 358.050781 223.082031 358.050781 Z M 223.082031 358.050781 " fill-opacity="1" fill-rule="nonzero"/><path fill="#371a45" d="M 259.960938 329.527344 C 252.511719 342.359375 238.488281 354.203125 228.183594 355.726562 C 209.097656 358.53125 177.691406 342.652344 177.691406 342.652344 C 177.691406 334.070312 177.222656 325.136719 179.328125 319.703125 C 179.226562 320.183594 217.691406 342.90625 238.363281 340.75 C 245.011719 340.050781 252.996094 335.660156 259.960938 329.527344 Z M 259.960938 329.527344 " fill-opacity="0.3" fill-rule="nonzero"/></svg>