<svg width="27" height="28" viewBox="0 0 27 28" fill="none" xmlns="http://www.w3.org/2000/svg">
<g id="Iconly/Broken/Buy">
<g id="Buy">
<path id="Buy_2" fill-rule="evenodd" clip-rule="evenodd" d="M22.3971 7.16752C23.0799 7.16752 23.729 7.4706 24.1756 7.99754C24.6223 8.52448 24.8236 9.22133 24.7257 9.91244L23.657 17.4423C23.4545 18.8739 22.2328 19.953 20.8142 19.953H8.53966C7.03332 19.953 5.8026 18.7981 5.6766 17.2667L4.64838 4.75898L2.94967 4.45934C2.49068 4.37783 2.18357 3.9324 2.26231 3.46401C2.34106 2.99447 2.77305 2.68565 3.23766 2.76142L5.57873 3.17586C5.95672 3.24244 6.24359 3.56274 6.27509 3.95307L7.35844 17.1232C7.41018 17.7546 7.91755 18.231 8.53966 18.231H20.8142C21.3992 18.231 21.9032 17.7856 21.9876 17.1955L23.0552 9.66562C23.0934 9.39928 22.9742 9.21215 22.8999 9.12375C22.8257 9.0365 22.6614 8.88955 22.3971 8.88955H10.3092C9.8435 8.88955 9.46551 8.50382 9.46551 8.02854C9.46551 7.55326 9.8435 7.16752 10.3092 7.16752H22.3971ZM8.35062 21.773C7.41127 21.773 6.64629 22.5537 6.64629 23.5123C6.64629 24.4709 7.41127 25.2504 8.35062 25.2504C9.28997 25.2504 10.0538 24.4709 10.0538 23.5123C10.0538 22.5537 9.28997 21.773 8.35062 21.773ZM21.0093 21.773C20.0699 21.773 19.3061 22.5537 19.3061 23.5123C19.3061 24.4709 20.0699 25.2504 21.0093 25.2504C21.9486 25.2504 22.7136 24.4709 22.7136 23.5123C22.7136 22.5537 21.9486 21.773 21.0093 21.773Z" fill="#212121"/>
</g>
</g>
</svg>
