<svg width="57" height="58" viewBox="0 0 57 58" fill="none" xmlns="http://www.w3.org/2000/svg">
<path d="M15.7146 15.542L9.08651 11.2952C8.95289 11.2133 8.83956 11.1022 8.75504 10.9702C8.67051 10.8382 8.61699 10.6888 8.5985 10.5332C8.58 10.3775 8.59701 10.2197 8.64825 10.0716C8.69948 9.9235 8.78361 9.78892 8.89432 9.67799L11.3834 7.18892C11.8615 6.7108 12.6678 6.81392 13.0099 7.39986L17.1537 14.1358C17.6974 15.0639 16.6334 16.1045 15.7146 15.542ZM9.92088 35.9702L2.22401 36.1249C2.06751 36.1282 1.9138 36.167 1.77445 36.2384C1.6351 36.3097 1.51372 36.4116 1.41943 36.5366C1.32515 36.6616 1.26041 36.8063 1.23008 36.9599C1.19975 37.1134 1.20462 37.2719 1.24432 37.4233L2.13963 40.8264C2.31307 41.4827 3.05838 41.7967 3.64901 41.4686L10.4506 37.9108C11.3881 37.3811 10.999 35.9467 9.92088 35.9702ZM27.799 49.0436L26.1115 56.5389C25.9568 57.1905 26.449 57.8186 27.1193 57.8186H30.6396C31.3193 57.8186 31.8115 57.1764 31.6428 56.5202L29.8099 49.0249C29.5381 47.9795 28.0521 47.9936 27.799 49.0436V49.0436ZM41.5334 15.542L48.1615 11.2952C48.7334 10.9436 48.8271 10.1514 48.3537 9.67799L45.8646 7.18892C45.7524 7.07718 45.6161 6.99263 45.4662 6.94173C45.3162 6.89084 45.1566 6.87497 44.9996 6.89534C44.8426 6.9157 44.6923 6.97176 44.5603 7.05922C44.4283 7.14667 44.3181 7.2632 44.2381 7.39986L40.0943 14.1358C39.5506 15.0639 40.6146 16.1045 41.5334 15.542V15.542ZM47.3271 35.9702L55.024 36.1249C55.1805 36.1282 55.3342 36.167 55.4736 36.2384C55.6129 36.3097 55.7343 36.4116 55.8286 36.5366C55.9229 36.6616 55.9876 36.8063 56.0179 36.9599C56.0483 37.1134 56.0434 37.2719 56.0037 37.4233L55.1084 40.8264C55.0679 40.9794 54.993 41.121 54.8894 41.2406C54.7858 41.3602 54.6563 41.4546 54.5107 41.5165C54.3651 41.5785 54.2073 41.6063 54.0493 41.598C53.8913 41.5897 53.7373 41.5455 53.599 41.4686L46.7974 37.9108C45.8599 37.3811 46.249 35.9467 47.3271 35.9702Z" fill="#FFC107"/>
<path d="M30.5227 1.67715L36.8321 16.0678C37.0694 16.6094 37.4477 17.0773 37.9276 17.4228C38.4075 17.7683 38.9713 17.9786 39.5602 18.0318L54.9305 19.41C56.6696 19.6631 57.3633 21.7959 56.1024 23.024L44.5242 32.7506C43.5867 33.5381 43.1602 34.7756 43.418 35.9709L46.7836 51.7256C47.0789 53.4553 45.2649 54.7771 43.7086 53.9568L30.293 46.1006C29.787 45.8036 29.2109 45.647 28.6242 45.647C28.0375 45.647 27.4615 45.8036 26.9555 46.1006L13.5399 53.9521C11.9883 54.7678 10.1696 53.4506 10.4649 51.7209L13.8305 35.9662C14.0836 34.7709 13.6617 33.5334 12.7242 32.7459L1.14143 23.0287C-0.11482 21.8053 0.57893 19.6678 2.31331 19.4146L17.6836 18.0365C18.2725 17.9833 18.8363 17.7729 19.3162 17.4275C19.7961 17.082 20.1744 16.614 20.4117 16.0725L26.7211 1.68184C27.5039 0.106837 29.7446 0.106837 30.5227 1.67715V1.67715Z" fill="#FDD835"/>
<path d="M30.0645 16.9289L28.9958 6.32578C28.9536 5.73516 28.8317 4.72266 29.7786 4.72266C30.5286 4.72266 30.9364 6.28359 30.9364 6.28359L34.1427 14.7961C35.352 18.0352 34.8552 19.1461 33.688 19.8023C32.3474 20.5523 30.3692 19.9664 30.0645 16.9289V16.9289Z" fill="#FFFF8D"/>
<path d="M43.2876 31.8078L52.4845 24.6312C52.9392 24.2516 53.7595 23.6469 53.1033 22.9578C52.5829 22.4141 51.1767 23.1969 51.1767 23.1969L43.1283 26.3422C40.7283 27.1719 39.1345 28.4 38.9939 29.9469C38.8111 32.0094 40.6626 33.5984 43.2876 31.8078Z" fill="#F4B400"/>
</svg>
